<svg width="67" height="66" viewBox="0 0 67 66" fill="none" xmlns="http://www.w3.org/2000/svg">
<path d="M66 22.9153C65.6253 21.6249 64.8133 20.6259 63.46 19.7309C62.4398 19.0441 61.4196 18.3364 60.4203 17.6496C59.6083 17.0876 58.7755 16.5048 57.9427 15.9429C57.5679 15.6931 57.443 15.4434 57.443 14.9855C57.4638 12.8417 57.4638 10.5939 57.443 7.86731C57.4222 5.84842 55.944 4.37067 53.9244 4.34986C53.279 4.34986 52.6544 4.34986 52.009 4.34986C51.2595 4.34986 50.5099 4.34986 49.7604 4.34986C47.845 4.34986 46.4709 5.53622 46.1586 7.43023C46.1377 7.5343 46.1169 7.65918 46.0961 7.74243C46.0128 7.70081 45.9087 7.61755 45.8046 7.55511C44.6595 6.76421 43.5352 5.9733 42.3901 5.20321C40.4331 3.85034 38.476 2.49748 36.5189 1.14461C35.4155 0.39533 34.4577 0.0415039 33.5 0.0415039C32.5423 0.0415039 31.5429 0.416144 30.4187 1.20705C26.3171 4.05848 22.2156 6.88909 18.114 9.7197L10.0983 15.256C7.80815 16.8379 5.43467 18.4821 3.10283 20.1055C1.99937 20.8756 1.27067 21.9787 1.04165 23.2275C0.833452 24.4139 1.12493 25.6211 1.85363 26.6409C2.70725 27.8273 4.03973 28.5141 5.47631 28.5141C6.41321 28.5141 7.35011 28.2227 8.18291 27.7024C8.22455 27.6816 8.26619 27.64 8.32865 27.5983C8.37029 27.5567 8.43275 27.5151 8.47439 27.5151C8.49521 27.5359 8.47439 27.6192 8.47439 27.6608C8.47439 27.7232 8.45357 27.7857 8.47439 27.8689C8.47439 27.973 8.47439 28.077 8.47439 28.2019C8.47439 28.2644 8.47439 28.306 8.47439 28.3684V35.7155C8.47439 43.8119 8.47439 51.9083 8.47439 60.0047C8.47439 61.4824 8.82833 62.5855 9.57785 63.4805C10.1608 64.1673 10.9311 64.6669 12.0346 65.0415L12.0762 65.0623H54.9862L55.0279 65.0415C56.1522 64.646 56.9433 64.1465 57.5263 63.4181C58.255 62.5231 58.5881 61.4408 58.5881 59.9839C58.5881 51.7834 58.5881 43.6038 58.5881 35.4033V28.3684C58.5881 28.306 58.5881 28.2644 58.5881 28.2019C58.5881 28.077 58.5881 27.973 58.5881 27.8689C58.5881 27.8065 58.5881 27.7232 58.5881 27.6816C58.5881 27.64 58.5673 27.5359 58.5881 27.5151C58.6089 27.5151 58.6922 27.5775 58.713 27.6192C58.7547 27.6608 58.7963 27.7024 58.8588 27.7232C59.7124 28.2644 60.6285 28.5558 61.5445 28.5558C62.5023 28.5558 63.46 28.2227 64.2928 27.6192C65.2921 26.8699 65.7502 25.8084 66.0208 24.9759V22.9778L66 22.9153ZM48.9484 7.80487C48.9693 7.70081 48.9901 7.59674 48.9901 7.51349C49.0317 7.18047 49.2816 7.05559 49.9478 7.05559H50.0103C50.3642 7.05559 50.7181 7.05559 51.0721 7.05559H52.5295C52.9459 7.05559 53.3623 7.05559 53.7995 7.05559C54.549 7.05559 54.7572 7.26373 54.778 8.03382C54.778 8.6374 54.778 9.26181 54.778 9.86539C54.778 10.136 54.778 11.2183 54.778 11.5096C54.778 12.1549 54.778 12.8001 54.778 13.4453C54.778 13.5702 54.778 13.6326 54.7572 13.6742C54.7156 13.6534 54.6739 13.6326 54.5698 13.5702C53.279 12.6752 51.9673 11.7594 50.6765 10.8644L49.1983 9.84458C49.1775 9.84458 49.1566 9.80295 49.1358 9.80295C48.7194 9.17855 48.8235 8.51253 48.9484 7.80487ZM55.8607 52.6992V60.0671C55.8607 61.6697 55.132 62.3982 53.508 62.3982C50.4475 62.3982 47.3869 62.3982 44.3264 62.3982H22.9443C19.8421 62.3982 16.7399 62.3982 13.6377 62.3982C12.3053 62.3982 11.5766 61.9403 11.3267 60.9413C11.2643 60.6915 11.2434 60.4209 11.2434 60.192C11.2434 56.2375 11.2434 52.3038 11.2434 48.3492C11.2434 40.9605 11.2434 33.5718 11.2434 26.183C11.2434 25.7668 11.3475 25.5378 11.6807 25.3089C18.9677 20.2929 26.1922 15.2769 33.1669 10.4274C33.3335 10.3233 33.4584 10.2608 33.5625 10.2608C33.6666 10.2608 33.7915 10.3233 33.9789 10.4274C41.4741 15.6307 48.4904 20.4802 55.361 25.2256C55.7566 25.4962 55.8815 25.7668 55.8815 26.2455C55.8607 35.0703 55.8607 44.0409 55.8607 52.6992ZM63.3559 24.1225C63.2518 25.0799 62.4814 25.7668 61.5237 25.7668C61.1073 25.7668 60.6909 25.6419 60.337 25.3921C58.5881 24.185 56.7976 22.957 55.0695 21.7498C54.2159 21.167 53.3623 20.5634 52.5087 19.9807L50.5724 18.6486C45.2633 14.9647 39.9542 11.3015 34.6243 7.61755C34.1871 7.32617 33.8748 7.15966 33.5417 7.15966C33.1877 7.15966 32.8754 7.32617 32.3966 7.65918C23.902 13.5285 15.4074 19.4187 6.93371 25.2881C6.55895 25.5378 6.18419 25.7668 5.78861 25.7668C5.76779 25.7668 5.72615 25.7668 5.68451 25.7668C4.76843 25.7668 4.12301 25.3505 3.85235 24.5804C3.56087 23.7479 3.78989 22.9362 4.51859 22.4158C5.35139 21.8122 6.20501 21.2295 7.01699 20.6675C7.32929 20.4594 7.64159 20.2304 7.97471 20.0223C16.0945 14.4027 24.2143 8.7831 32.3133 3.18432C32.7297 2.89293 33.1253 2.74724 33.5417 2.74724C33.9789 2.74724 34.4161 2.91374 34.8741 3.22594C40.0375 6.80583 45.2008 10.3649 50.3642 13.9448L54.7572 16.9835L56.9641 18.5029C58.713 19.7101 60.5244 20.9797 62.3149 22.2077C63.106 22.7696 63.4392 23.3732 63.3559 24.1225Z" fill="#182316"/>
<path d="M43.098 30.1376C42.9315 30.1376 42.7441 30.1376 42.5775 30.1584C39.8917 30.3457 37.4558 33.0514 37.5807 35.7155C37.6224 36.4856 38.0804 37.006 38.7675 37.0684C38.8299 37.0684 38.8716 37.0684 38.9132 37.0684C39.5586 37.0684 40.0375 36.6729 40.204 35.9861C40.2457 35.7988 40.2665 35.6115 40.2873 35.4658C40.4539 33.988 41.4324 33.0098 42.9939 32.8225C43.0772 32.8017 43.1813 32.8017 43.2646 32.8017C44.3472 32.8017 45.4923 33.6134 45.9087 34.6749C46.2835 35.5907 46.1794 36.5689 45.6172 37.3806C45.0551 38.2131 44.1598 38.6918 43.1397 38.6918C41.5365 38.6918 39.9334 38.7127 38.3302 38.7127C37.2268 38.7127 36.1233 38.7127 35.0407 38.7127C33.9372 38.7127 32.8338 38.7127 31.7511 38.7127H19.8005C19.6755 38.7127 19.5298 38.7127 19.3632 38.7335C18.7178 38.8167 18.2181 39.3579 18.1765 39.9823C18.1349 40.5859 18.5721 41.1686 19.2175 41.3559C19.509 41.4392 19.8213 41.4392 20.0919 41.4392H29.565C33.8331 41.4392 38.0804 41.4392 42.3485 41.4392C42.9315 41.4392 43.4936 41.3976 44.0766 41.3351C45.4715 41.1686 46.804 40.3777 47.7201 39.1497C48.6361 37.9217 49.0317 36.444 48.8235 35.0703C48.3238 32.0316 46.1377 30.1376 43.098 30.1376Z" fill="#182316"/>
<path d="M38.6217 43.0002C36.1025 43.0002 33.5833 43.0002 31.0433 43.0002H19.8421C19.7172 43.0002 19.5923 43.0002 19.4465 43.021C18.7595 43.1043 18.239 43.6454 18.1973 44.2906C18.1557 44.9358 18.5929 45.4978 19.2383 45.6435C19.5506 45.7267 19.8837 45.7267 20.1544 45.7267C21.9241 45.7267 23.6938 45.7267 25.4635 45.7267H29.4193C30.3562 45.7267 31.2723 45.7267 32.2092 45.7267C33.1461 45.7267 34.0621 45.7267 34.9991 45.7267C36.5605 45.7267 37.8306 45.7267 38.9965 45.7476C40.3706 45.7476 41.4324 46.6217 41.7655 48.037C42.057 49.2858 41.4741 50.5971 40.329 51.2423C39.8917 51.4712 39.4129 51.6169 38.934 51.6169C38.1429 51.6169 37.3933 51.3047 36.8104 50.7428C36.2482 50.1808 36.0609 49.5148 35.9359 48.6406C35.8318 47.8497 35.3113 47.3294 34.6243 47.3294C34.6035 47.3294 34.5618 47.3294 34.541 47.3294C33.7915 47.371 33.2918 47.9746 33.2918 48.8487C33.2918 50.2432 33.8331 51.5961 34.8741 52.616C35.9568 53.6982 37.4142 54.3226 38.934 54.3226C39.3921 54.3226 39.8501 54.2602 40.3081 54.1561C42.9731 53.4693 44.7844 51.055 44.5762 48.3909C44.3056 45.1232 41.9946 43.021 38.6217 43.0002Z" fill="#182316"/>
<path d="M19.4465 37.0892C19.7172 37.1308 19.9878 37.1517 20.3001 37.1517H20.8831C22.5071 37.1517 24.1102 37.1517 25.7342 37.1517C27.3998 37.1517 29.0862 37.1517 30.7518 37.1517C31.4388 37.1517 31.9802 37.11 32.4798 37.006C34.7284 36.5689 36.5189 34.7789 36.9353 32.5727C37.3517 30.2624 36.394 27.973 34.4785 26.745C33.5625 26.1414 32.5007 25.8292 31.3972 25.8292C30.1896 25.8292 29.0445 26.2038 28.0868 26.9115C26.567 28.0146 25.7758 29.5548 25.755 31.4488C25.755 32.1981 26.2338 32.7392 26.9625 32.8017C27.0042 32.8017 27.0666 32.8017 27.1083 32.8017C27.7537 32.8017 28.2534 32.3854 28.4199 31.6986C28.4616 31.5321 28.4824 31.3864 28.4824 31.2199C28.4824 31.1574 28.5032 31.095 28.5032 31.0534C28.6698 29.6589 29.9606 28.5141 31.3764 28.5141C31.418 28.5141 31.4597 28.5141 31.5013 28.5141C33.0628 28.5974 34.2912 29.8254 34.3328 31.3447C34.3536 32.1981 34.083 32.9474 33.5416 33.4885C32.9795 34.0713 32.1675 34.4043 31.2515 34.4043C30.5852 34.4043 29.8773 34.4251 29.0237 34.4251C28.4408 34.4251 27.8578 34.4251 27.2748 34.4251C26.6919 34.4251 26.1089 34.4251 25.526 34.4251H22.2156C21.362 34.4251 20.5083 34.4251 19.6547 34.4251C18.8844 34.4251 18.3014 34.9454 18.239 35.6531C18.1557 36.3816 18.6762 36.9643 19.4465 37.0892Z" fill="#182316"/>
</svg>
