<svg width="65" height="65" viewBox="0 0 65 65" fill="none" xmlns="http://www.w3.org/2000/svg">
<path d="M10.5582 49.1348C9.92631 49.1348 9.29445 49.2374 8.68297 49.4427H8.66259C8.54029 49.4837 8.418 49.5248 8.33647 49.5248C8.2957 49.5248 8.19379 49.5248 8.0715 49.3195C6.68548 47.2056 5.64597 45.1531 4.89182 43.0597C3.30198 38.688 2.73126 34.0906 3.24083 29.3701C3.54657 26.5172 4.28034 23.6849 5.40138 20.9962C6.11477 19.2927 7.07275 17.5482 8.39762 15.5573C8.66259 15.1468 8.7645 14.6748 8.66259 14.2438C8.58106 13.8538 8.33647 13.5254 8.01035 13.3202C7.76576 13.1765 7.4804 13.0944 7.21543 13.0944C6.70586 13.0944 6.21668 13.3817 5.87018 13.8538C3.38351 17.4045 1.65099 21.3451 0.71339 25.5526C0.448416 26.743 0.285356 27.9539 0.122295 29.1238C0.0815303 29.4316 0.0407651 29.76 0 30.0679V35.3426C0.0407651 35.6505 0.0815303 35.9788 0.122295 36.2867C0.203826 36.964 0.305738 37.6618 0.428034 38.3596C1.24334 43.0392 2.99624 47.3492 5.64597 51.1872C5.87018 51.4951 5.87018 51.7003 5.66635 52.0493C5.03449 53.1781 4.83067 54.389 5.01411 55.6615C5.42176 58.3502 7.80652 60.3821 10.5786 60.3821C10.9454 60.3821 11.3123 60.341 11.6588 60.2794C13.1264 59.9921 14.4309 59.089 15.2665 57.7755C16.0818 56.4825 16.3468 54.9021 16.0003 53.4859C15.3481 50.8794 13.1671 49.1348 10.5582 49.1348ZM10.5378 57.2829C9.13139 57.2829 8.01035 56.1746 8.01035 54.7584C8.01035 53.3833 9.17215 52.2134 10.5378 52.1929L10.5582 51.9877V52.1929C11.2308 52.1929 11.8627 52.4597 12.3315 52.9523C12.8206 53.4449 13.0856 54.1017 13.0856 54.7995C13.0652 56.2157 11.9849 57.2829 10.5378 57.2829Z" fill="#182316"/>
<path d="M50.6507 56.503C50.3653 56.503 50.0596 56.5851 49.7742 56.7493C49.5704 56.8519 49.387 56.9751 49.2239 57.0982C45.9831 59.3764 42.2734 60.9567 38.1765 61.7982C37.8708 61.8598 37.5854 61.9009 37.3001 61.9009C36.3829 61.9009 35.5472 61.5725 34.9561 60.9567C34.3446 60.3205 34.0185 59.4174 34.0389 58.4323C34.1 56.2772 34.0797 54.1017 34.0593 51.9877C34.0593 51.4335 34.0389 50.8589 34.0389 50.3047C34.0389 49.8737 34.1204 49.689 34.5688 49.5864C35.8529 49.2785 36.709 48.1907 36.7498 46.7951V46.5488C36.7498 46.1588 36.7701 45.7689 36.7294 45.3789C36.6886 44.989 36.8109 44.7837 37.2389 44.5785C41.6008 42.3619 43.8837 38.8522 44.0263 34.1727C44.0875 32.3255 44.0467 30.4578 44.0263 28.8364C44.006 28.3233 44.1486 28.1181 44.6174 27.8923C46.6557 26.9893 47.736 25.0395 47.5525 22.6792C47.3895 20.7294 45.9015 18.9643 43.9244 18.4307C43.476 18.3075 43.3945 18.1434 43.4149 17.6918C43.4352 15.9883 43.4352 14.2438 43.4352 12.5608C43.4352 11.9656 43.4352 11.3704 43.4352 10.7752C43.4352 10.3236 43.4149 9.89264 43.2926 9.46163C42.7626 7.75813 41.1524 6.50616 39.4606 6.50616C39.2976 6.50616 39.1345 6.52668 38.9715 6.5472C36.8313 6.85507 35.4045 8.47647 35.3841 10.5905C35.3638 13.3202 35.3638 15.5573 35.3841 17.6302C35.3841 17.8765 35.3638 18.0407 35.2822 18.1023C35.2211 18.1639 35.0988 18.2049 34.895 18.2049H34.8542C34.1 18.1844 33.3051 18.1844 32.4898 18.1844C31.7153 18.1844 30.8796 18.1844 30.0439 18.2049H30.0031C29.8197 18.2049 29.6974 18.1844 29.6362 18.1228C29.5751 18.0613 29.5343 17.9176 29.5547 17.6918C29.5751 15.5163 29.5751 13.2997 29.5547 11.1651V10.5084C29.5547 9.31797 29.0655 8.29176 28.1483 7.51184C27.3534 6.83454 26.477 6.50616 25.5801 6.50616C25.0094 6.50616 24.4387 6.64983 23.868 6.91664C22.3393 7.61446 21.524 8.88696 21.5036 10.5699C21.4832 12.8071 21.4832 15.1058 21.5036 17.6097C21.5036 18.1844 21.4221 18.3896 20.9329 18.4512C20.4845 18.5128 20.0564 18.7591 19.7507 18.9643C17.9774 20.1342 17.1825 21.7556 17.3659 23.767C17.529 25.7168 18.5889 27.1535 20.4233 27.9744C20.7902 28.1386 20.8921 28.3028 20.8921 28.6722C20.8514 29.6779 20.8717 30.6836 20.8921 31.6688C20.8921 32.0587 20.8921 32.4692 20.8717 32.8592C20.8514 33.7007 20.831 34.5832 20.9533 35.4452C21.5036 39.3653 23.4603 42.2592 26.7623 44.0859C27.9445 44.7427 28.3114 45.3994 28.2095 46.713C28.1076 48.1907 28.984 49.3195 30.5127 49.6479C30.9 49.73 30.9815 49.8532 30.9815 50.2637C30.9611 51.3309 30.9611 52.4392 30.9611 53.486C30.9611 53.8964 30.9611 54.3069 30.9611 54.6969V55.9489C30.9611 56.8314 30.9611 57.7345 30.9611 58.617C30.9815 62.2498 33.672 65 37.1982 65C37.6058 65 38.0339 64.959 38.4619 64.8769C41.9269 64.2406 45.2493 63.0092 48.3678 61.2646C49.4481 60.6694 50.4672 59.9921 51.4048 59.2943C52.1182 58.7607 52.3017 57.8986 51.8532 57.1803C51.5883 56.7698 51.1602 56.503 50.6507 56.503ZM38.4211 10.7752C38.4211 10.0774 38.8084 9.64635 39.4199 9.64635C40.011 9.64635 40.3779 10.0774 40.3982 10.7957C40.4186 11.6167 40.4186 12.4582 40.4186 13.2791C40.4186 13.628 40.4186 13.9975 40.4186 14.3464V14.5516C40.4186 14.8184 40.4186 15.0647 40.4186 15.3315C40.4186 16.1525 40.4186 16.994 40.4186 17.8355C40.4186 17.9997 40.3982 18.1023 40.3575 18.1434C40.3167 18.1844 40.2556 18.2049 40.1333 18.2049H40.0925C39.8887 18.2049 39.6849 18.1844 39.4199 18.1844C39.2161 18.1844 38.9919 18.1844 38.788 18.1844H38.625C38.5638 18.1844 38.4823 18.1844 38.4415 18.1434C38.4008 18.1023 38.4008 18.0407 38.4008 17.9381C38.4008 17.1377 38.4008 16.3372 38.4008 15.5368C38.4008 13.9564 38.3804 12.3555 38.4211 10.7752ZM24.5406 13.7512C24.5406 12.8481 24.5406 11.9245 24.5406 11.0215C24.5406 10.7957 24.5814 10.5494 24.6425 10.3236C24.7852 9.87212 25.0706 9.64635 25.5394 9.64635H25.5597C26.0082 9.64635 26.2935 9.87212 26.4362 10.3236C26.5177 10.5494 26.5381 10.7957 26.5381 11.1241C26.5381 11.904 26.5381 12.6839 26.5381 13.4638V14.3464C26.5381 14.6748 26.5381 15.0032 26.5381 15.3315C26.5381 16.132 26.5381 16.953 26.5585 17.7739C26.5585 17.9586 26.5381 18.0613 26.477 18.1228C26.4362 18.1639 26.3547 18.1844 26.2324 18.1844C26.212 18.1844 26.1712 18.1844 26.1508 18.1844C25.9266 18.1639 25.7228 18.1639 25.519 18.1639C25.3151 18.1639 25.1113 18.1639 24.9279 18.1844C24.8871 18.1844 24.8667 18.1844 24.826 18.1844C24.7037 18.1844 24.6221 18.1639 24.5814 18.1228C24.5202 18.0613 24.4998 17.9381 24.4998 17.7123C24.5406 16.3988 24.5406 15.0442 24.5406 13.7512ZM20.5049 23.8696C20.3418 23.2128 20.4437 22.5766 20.8106 22.084C21.1775 21.5914 21.7482 21.3246 22.4412 21.3246C23.5419 21.3246 24.7037 21.3041 26.1916 21.3041C26.905 21.3041 29.7178 21.3041 30.4108 21.3041H32.5102C33.4682 21.3041 34.4465 21.3041 35.4045 21.3041C36.3625 21.3041 37.3409 21.3041 38.2988 21.3041C39.7052 21.3041 41.1116 21.3041 42.518 21.3246C43.1907 21.3246 43.7614 21.5914 44.1283 22.0635C44.4951 22.5355 44.6174 23.1512 44.4544 23.808C44.2709 24.5879 43.5575 25.2037 42.7422 25.2858C42.6199 25.3063 42.4976 25.3063 42.3754 25.3063H31.756C28.6987 25.3063 25.6616 25.3063 22.6043 25.3063C21.524 25.2858 20.7291 24.7521 20.5049 23.8696ZM24.0718 35.4042C23.868 34.2548 23.8884 33.0439 23.9088 31.8945C23.9088 31.5456 23.9088 31.1762 23.9088 30.8273C23.9088 30.6015 23.9088 30.3963 23.9088 30.1705C23.9088 29.7395 23.9087 29.288 23.8884 28.8364C23.8884 28.6517 23.9088 28.5286 23.9495 28.4875C24.0107 28.426 24.133 28.4054 24.3164 28.4054V28.2002L24.3368 28.4054C25.6617 28.4054 26.9865 28.4054 28.3114 28.4054H32.4694C32.4694 28.4054 35.9956 28.4054 36.6886 28.4054C38.1969 28.4054 39.3791 28.4054 40.4798 28.3849H40.5002C40.7448 28.3849 40.9078 28.426 40.969 28.4875C41.0301 28.5696 41.0709 28.7133 41.0505 28.9391C41.0097 29.76 41.0301 30.581 41.0301 31.3814C41.0301 32.4692 41.0505 33.598 40.9486 34.6858C40.6632 38.4623 37.7689 41.6846 34.0797 42.3619C33.5497 42.4645 32.9994 42.5055 32.4694 42.5055C28.2706 42.5466 24.8056 39.6116 24.0718 35.4042ZM33.7128 46.5488C33.672 46.5898 33.5905 46.6104 33.4478 46.6104C33.3255 46.6104 33.1828 46.6104 33.0605 46.6104H32.4083C32.3268 46.6104 32.2452 46.6104 32.1433 46.6104C32.0618 46.6104 31.9599 46.6104 31.8783 46.6104C31.756 46.6104 31.6337 46.6104 31.5318 46.6104C31.5114 46.6104 31.4911 46.6104 31.4707 46.6104C31.2872 46.6104 31.2057 46.5898 31.1853 46.2409C31.1853 45.9946 31.1853 45.6457 31.2465 45.5842C31.2465 45.5842 31.2872 45.5636 31.4095 45.5636C31.5318 45.5636 31.6949 45.5842 31.9191 45.6252C32.0618 45.6457 32.2248 45.6662 32.3879 45.6662C32.6732 45.6662 32.9382 45.6252 33.2032 45.6047L33.407 45.5842C33.4478 45.5842 33.4682 45.5842 33.5089 45.5842C33.5701 45.5842 33.672 45.5841 33.6924 45.6457C33.7331 45.6868 33.7331 45.7689 33.7128 45.892C33.6924 45.9946 33.7128 46.1178 33.7128 46.2204C33.7535 46.3435 33.7535 46.5077 33.7128 46.5488Z" fill="#182316"/>
<path d="M64.0013 24.629C61.4738 15.1674 55.9094 8.12757 47.471 3.69435C42.8034 1.23145 37.83 0 32.6529 0C30.7369 0 28.7802 0.164193 26.8031 0.513104C23.0934 1.14935 19.4857 2.4629 16.0818 4.43322C15.3685 4.8437 14.6143 5.33628 13.7378 5.95201C12.9837 6.48563 12.8003 7.34765 13.2487 8.06599C13.534 8.51752 13.9824 8.76381 14.492 8.76381C14.757 8.76381 15.022 8.70224 15.2869 8.55857C15.5927 8.39438 15.878 8.20966 16.1634 8.02494C20.9737 4.82318 26.4158 3.20177 32.3268 3.20177H32.4083C32.6529 3.20177 32.8771 3.20177 33.1217 3.20177C33.3663 3.20177 33.5905 3.20177 33.8351 3.20177C34.1816 3.20177 34.4669 3.20177 34.7319 3.22229C35.5268 3.26334 36.3013 3.38649 36.8924 3.48911C44.862 4.80265 51.3029 8.62015 55.9909 14.88C60.3935 20.7294 62.3707 27.4203 61.8815 34.7679C61.5961 39.0985 60.3528 43.2854 58.1922 47.2056C57.8661 47.8008 57.4992 48.3549 57.1323 48.9091C56.8674 49.3195 56.582 49.7506 56.317 50.2021C55.9909 50.7357 55.9501 51.372 56.2151 51.8645C56.4597 52.3161 56.9081 52.6034 57.4381 52.6445C57.4788 52.6445 57.5196 52.6445 57.54 52.6445C58.2738 52.6445 58.6814 52.1314 59.0279 51.6388C62.4522 46.6719 64.4089 41.1715 64.8777 35.2605C65.1834 31.443 64.8981 27.9539 64.0013 24.629Z" fill="#182316"/>
<path d="M32.8567 39.6321C33.937 37.826 34.8338 36.2457 35.6083 34.7679C35.8122 34.3574 35.8326 33.9264 35.6491 33.5159C35.4453 33.0644 35.0376 32.7566 34.5077 32.6334C34.3242 32.5924 34.1612 32.5718 33.9574 32.5308C33.9574 32.5308 34.4058 31.9356 34.5892 31.7098C34.6504 31.6277 34.7115 31.5456 34.793 31.4635C34.9153 31.2993 35.058 31.1351 35.1803 30.9504C35.7103 30.1705 35.6083 29.2674 34.9357 28.7543C34.6707 28.5491 34.365 28.4465 34.0389 28.4465C33.5497 28.4465 33.1013 28.6722 32.7548 29.1033C32.1637 29.8421 31.5522 30.6015 30.9815 31.3404C30.6554 31.7509 30.3293 32.1614 30.0031 32.5718L29.9012 32.695C29.4732 33.2286 28.984 33.8238 29.3509 34.6858C29.7178 35.5478 30.4516 35.6505 31.0426 35.6505C31.1649 35.6505 31.2872 35.6505 31.4095 35.6299C31.4299 35.6299 31.4503 35.6299 31.4911 35.6299C31.5522 35.6299 31.593 35.6299 31.6134 35.6299C31.6134 35.671 31.5726 35.7326 31.5318 35.8147L31.4095 36.0404C31.0223 36.7177 30.635 37.395 30.2885 38.1134C29.942 38.8522 30.2273 39.6732 30.9407 40.0631C31.1649 40.1863 31.4299 40.2479 31.6745 40.2479C32.1433 40.3094 32.5917 40.0426 32.8567 39.6321Z" fill="#182316"/>
</svg>
