<svg width="66" height="66" viewBox="0 0 66 66" fill="none" xmlns="http://www.w3.org/2000/svg">
<path d="M1.68088 66.0001C0.988762 66.0001 0.53394 65.7424 0.237317 65.1873C-0.0790812 64.5927 -0.0593063 64.0376 0.296641 63.4627C0.435065 63.2447 0.632814 63.0465 0.870113 62.8086L0.929437 62.7491C4.50869 59.1611 8.34501 55.3353 12.1616 51.5292C12.2209 51.4697 12.3593 51.3905 12.4977 51.3112C12.5966 51.2517 12.6955 51.2121 12.7944 51.1526L13.5063 50.6967L12.5373 49.3685H8.70096C8.02862 49.3685 7.3365 49.3685 6.66415 49.3685C2.78828 49.3685 0.0593429 46.6527 0.0593429 42.7872C0.0593429 36.2456 0.0593429 30.1599 0.0593429 24.1733C0.0593429 20.3276 2.74873 17.6317 6.60483 17.6119C7.71222 17.6119 8.79984 17.6119 9.90723 17.6119C11.153 17.6119 12.3989 17.6119 13.6447 17.6119C14.2577 17.6119 14.7718 17.4533 15.2662 17.1163C19.1025 14.5195 22.9389 11.9226 26.7752 9.3258L31.1652 6.35234C32.3319 5.55941 33.6371 5.16295 34.962 5.16295C38.0469 5.16295 40.6176 7.34349 41.2108 10.4755C41.2702 10.8324 41.2702 11.2288 41.2702 11.6253V11.7244C41.2702 13.8257 41.2702 15.9467 41.2702 18.0678V21.1404L42.1798 21.0016C42.7731 20.9025 43.1092 20.5457 43.307 20.3078C43.3465 20.2682 43.3663 20.2285 43.4059 20.2087C49.3976 14.2221 55.5872 8.01748 61.8163 1.79302C62.2909 1.31727 62.6468 1.03974 63.1016 0.980272C63.2005 0.960449 63.2796 0.960449 63.3587 0.960449C63.9915 0.960449 64.5254 1.2578 64.8023 1.79302C65.1384 2.42736 65.0593 3.16082 64.5847 3.73569C64.4661 3.87445 64.3475 3.99339 64.209 4.13215L64.1299 4.21144C63.596 4.74667 63.0621 5.28189 62.5282 5.81711C60.9659 7.38314 59.3444 9.00863 57.7426 10.5945C56.7737 11.546 57.2285 12.3587 57.6438 12.8741C61.8756 18.048 64.3079 23.9156 64.8814 30.3185C65.7317 39.9723 62.8248 48.5359 56.2002 55.7714C55.7849 56.2273 55.2906 56.4652 54.7764 56.4652C54.4007 56.4652 54.0447 56.3264 53.7481 56.0687C53.3922 55.7515 53.1944 55.3749 53.1746 54.9388C53.1549 54.463 53.3526 53.9476 53.7679 53.5115C56.7341 50.32 58.7907 46.9897 60.0168 43.3026C63.3983 33.2127 61.836 23.7769 55.3894 15.2727C55.251 15.0943 54.8753 14.5988 54.2623 14.5988C53.7679 14.5988 53.4317 14.9159 53.2142 15.1538C52.5419 15.8873 51.8102 16.6207 51.0587 17.3145C50.3271 17.9885 50.2677 18.7418 50.8808 19.5545C53.2735 22.6866 54.7566 26.1755 55.2906 29.922C56.2595 36.6619 54.5984 42.7674 50.3073 48.1196C49.714 48.8729 49.2988 49.3289 48.5869 49.3487H48.5473C47.8354 49.3487 47.3608 49.0712 47.0247 48.4765C46.6687 47.8421 46.728 47.2673 47.1631 46.7122C47.3015 46.5338 47.4399 46.3752 47.5586 46.2166C48.2705 45.3246 49.0021 44.4127 49.5756 43.3621C53.4317 36.2059 53.1549 29.1093 48.7253 22.2901C48.4287 21.8342 48.1123 21.3584 47.519 21.3584C47.0444 21.3584 46.728 21.6558 46.3128 22.0721C45.8777 22.5082 45.4427 22.9443 45.0076 23.3804C44.0584 24.3319 43.0895 25.3231 42.1007 26.2547C41.5272 26.8098 41.2702 27.4441 41.2702 28.2569C41.2899 36.3447 41.2899 45.2057 41.2702 55.3353C41.2702 59.0224 38.4819 61.8174 34.8236 61.8174C34.7445 61.8174 34.6654 61.8174 34.5863 61.8174C33.3998 61.7778 32.2726 61.3813 31.1257 60.6082C29.8205 59.7162 28.5154 58.844 27.2102 57.9519C24.3627 56.0291 21.436 54.0468 18.5686 52.0644C18.272 51.8662 17.8765 51.6283 17.4019 51.6283C16.8087 51.6283 16.3538 52.005 16.077 52.2825C13.1701 55.2361 10.1841 58.2096 7.29695 61.084C5.9127 62.4716 4.54824 63.8394 3.164 65.227C2.6103 65.782 2.19503 66.0001 1.68088 66.0001ZM36.8011 31.7458C36.7417 31.7854 36.6824 31.8052 36.6626 31.825C36.5638 31.8845 36.4451 31.944 36.3265 32.0629L31.6794 36.7015C28.0012 40.3886 24.3231 44.0559 20.645 47.7232C20.5263 47.8421 20.1704 48.1989 20.2099 48.7342C20.2693 49.2694 20.6845 49.5469 20.8625 49.6658C22.3258 50.6372 23.7694 51.6283 25.2328 52.6195C27.8035 54.3639 30.4731 56.1678 33.1031 57.9123C33.6568 58.2889 34.2896 58.4871 34.9224 58.4871C36.4056 58.4871 37.6514 57.377 37.9084 55.811C37.9678 55.4344 37.9875 55.0577 37.9875 54.7207C37.9875 48.7143 37.9875 42.7278 37.9875 36.7214V31.0718L36.8011 31.7458ZM14.9103 46.1175C15.2464 46.1175 15.5431 46.1373 15.7408 46.2563C16.0177 46.4347 16.2747 46.514 16.5516 46.514C17.0855 46.514 17.4415 46.1968 17.6788 45.9787C24.3231 39.3182 30.9279 32.6973 37.335 26.3142C37.6316 26.0169 37.9875 25.5808 37.9678 24.9266C37.9678 23.2615 37.9678 21.5963 37.9678 19.951C37.9678 17.2551 37.9678 14.4798 37.948 11.7244C37.948 10.3368 37.2361 9.26634 35.9903 8.77076C35.6146 8.632 35.2388 8.5527 34.8631 8.5527C34.1908 8.5527 33.5184 8.79058 32.8065 9.26634C30.0183 11.1495 27.2498 13.0327 24.4615 14.9159C21.7524 16.7396 19.063 18.5634 16.3538 20.4069C15.8199 20.7637 15.3058 20.9422 14.6927 20.9422H14.6532C13.5854 20.9223 12.4384 20.9223 11.0542 20.9223C10.1445 20.9223 9.25466 20.9223 8.34501 20.9223H6.8619C4.52846 20.9223 3.2431 22.2108 3.2431 24.5301C3.2431 26.6116 3.2431 28.693 3.2431 30.7744V36.1861C3.2431 38.2874 3.2431 40.3886 3.2431 42.4899C3.2431 44.8687 4.50869 46.1373 6.90145 46.1373C8.12749 46.1373 9.37331 46.1373 10.5993 46.1373C12.0034 46.1373 13.4272 46.1373 14.8312 46.1373H14.9103V46.1175Z" fill="#182316"/>
</svg>
