<svg width="48" height="80" viewBox="0 0 48 80" fill="none" xmlns="http://www.w3.org/2000/svg">
<path d="M16.3296 80C14.5835 79.664 12.3361 79.136 10.2343 78.096C4.64023 75.296 0.856951 69.936 0.129396 63.76C-0.598158 57.6 1.81086 51.536 6.58038 47.536C7.3726 46.88 7.46961 46.08 7.46961 45.392C7.46961 41.808 7.46961 38.176 7.48578 34.64C7.50195 27.104 7.51811 19.312 7.43727 11.648C7.38877 5.824 11.1882 1.056 16.6691 0.08C16.7661 0.064 16.8631 0.032 16.9278 0H20.4847C22.6189 0.512 24.2034 1.216 25.4644 2.224C28.3423 4.496 29.8136 7.52 29.8136 11.216C29.8459 21.024 29.8298 31.488 29.8136 45.12C29.8136 46.208 30.1693 47.008 31.01 47.792C36.7335 53.136 38.5928 59.456 36.5556 66.592C34.5185 73.68 29.6519 78.112 22.053 79.76C21.762 79.824 21.471 79.872 21.1638 79.936C21.0506 79.952 20.9374 79.984 20.8243 80H16.3296ZM18.6578 2.96C17.5745 2.96 16.5236 3.184 15.5212 3.616C12.32 5.04 10.6223 7.6 10.6062 11.04C10.59 21.952 10.59 33.712 10.6062 47.024C10.6062 47.952 10.3152 48.544 9.61994 49.056C4.88275 52.56 2.70009 57.248 3.15279 62.992C3.76717 70.864 10.5415 77.04 18.5931 77.04C19.3853 77.04 20.1937 76.976 20.9698 76.864C27.2914 75.92 32.4166 71.264 33.7424 65.296C35.1975 58.72 33.1927 53.312 27.8088 49.2C26.9842 48.576 26.6609 47.952 26.677 46.992C26.7094 42.576 26.6932 38.08 26.6932 33.728C26.6932 32.144 26.6932 30.56 26.6932 28.992V28.032C26.6932 26.528 26.6932 25.008 26.6932 23.504C26.6932 19.328 26.7094 15.008 26.677 10.752C26.6447 6.448 23.0554 2.96 18.6578 2.96Z" fill="#182316"/>
<path d="M39.5627 12.512C39.1262 12.512 38.6897 12.512 38.237 12.496C37.1699 12.48 36.41 11.824 36.41 10.944C36.41 10.064 37.1699 9.408 38.2208 9.408C39.4981 9.392 40.6621 9.392 41.7939 9.392C43.0065 9.392 44.1221 9.392 45.2215 9.408C46.2724 9.424 46.9676 10.016 46.9838 10.928C47 11.856 46.3047 12.48 45.2053 12.512C45.173 12.512 45.1245 12.512 45.0921 12.512H41.6322C41.2765 12.512 40.937 12.512 40.5813 12.512C40.2579 12.512 39.9023 12.512 39.5627 12.512Z" fill="#182316"/>
<path d="M39.5142 22.112C39.013 22.112 38.5927 22.112 38.2046 22.096C37.6711 22.08 37.2022 21.904 36.8789 21.6C36.6687 21.392 36.41 21.056 36.4262 20.528C36.4423 19.648 37.1861 19.008 38.2046 19.008C39.4819 18.992 40.6621 18.992 41.8101 18.992C43.0065 18.992 44.1867 18.992 45.2862 19.008C46.3209 19.024 47.0161 19.632 47.0161 20.544C47.0161 21.44 46.3209 22.064 45.27 22.096C45.2377 22.096 45.2053 22.096 45.173 22.096H41.6322C41.2765 22.096 40.9208 22.096 40.5813 22.096C40.2256 22.112 39.8699 22.112 39.5142 22.112Z" fill="#182316"/>
<path d="M41.6646 31.712C40.4681 31.712 39.2879 31.712 38.14 31.696C37.1537 31.68 36.3938 31.024 36.41 30.144C36.41 29.264 37.1537 28.624 38.1723 28.608C38.5765 28.608 39.013 28.592 39.5466 28.592C39.9184 28.592 40.2903 28.592 40.6621 28.592C41.034 28.592 41.4059 28.592 41.7777 28.592C42.1496 28.592 42.5053 28.592 42.861 28.592C43.2167 28.592 43.5724 28.592 43.9281 28.592C44.4293 28.592 44.8496 28.592 45.2376 28.608C46.3047 28.624 46.9838 29.216 47 30.128C47 30.544 46.8706 30.912 46.5958 31.184C46.2724 31.504 45.7874 31.68 45.2376 31.696C44.0251 31.712 42.8125 31.712 41.6646 31.712Z" fill="#182316"/>
<path d="M39.5466 41.312C39.11 41.312 38.6735 41.312 38.2208 41.296C37.1699 41.28 36.41 40.624 36.41 39.744C36.4262 38.864 37.1537 38.224 38.1723 38.208C39.3687 38.192 40.5651 38.192 41.7292 38.192C42.9095 38.192 44.0897 38.192 45.2538 38.208C46.3047 38.224 46.9838 38.816 47 39.728C47.0161 40.656 46.3047 41.264 45.2053 41.296C45.173 41.296 45.1406 41.296 45.1245 41.296H41.6322C41.2927 41.296 40.937 41.296 40.5975 41.296C40.2256 41.312 39.8861 41.312 39.5466 41.312Z" fill="#182316"/>
<path d="M18.6415 70.496C14.6157 70.496 10.9779 67.728 9.97553 63.92C8.81144 59.456 11.1396 54.912 15.3918 53.376C16.6205 52.928 17.1541 52.176 17.1379 50.88C17.1056 42.672 17.1056 34.336 17.1217 26.272V21.12C17.1217 21.024 17.1217 20.944 17.1217 20.848C17.1217 20.544 17.1056 20.272 17.1702 20.064C17.3642 19.44 17.9786 18.992 18.6253 18.992C18.69 18.992 18.7547 18.992 18.8032 19.008C19.5954 19.12 20.129 19.696 20.129 20.464C20.1451 22.656 20.1451 24.88 20.1451 27.04C20.1451 27.888 20.1451 28.736 20.1451 29.584V35.984C20.1451 37.184 20.1451 38.4 20.1451 39.6C20.1451 43.392 20.1451 47.312 20.129 51.168C20.129 52.24 20.5978 52.912 21.6326 53.28C25.529 54.64 28.0189 58.576 27.55 62.624C27.0811 66.64 23.8961 69.856 19.7894 70.432C19.4337 70.48 19.0457 70.496 18.6415 70.496ZM18.6738 55.84C15.3918 55.84 12.8372 58.288 12.7564 61.52C12.7079 63.008 13.2899 64.448 14.3894 65.584C15.5049 66.736 17.0409 67.424 18.6092 67.44H18.7062C21.8589 67.44 24.4619 64.864 24.4943 61.68C24.5266 58.4 22.0691 55.872 18.787 55.824L18.6738 55.84Z" fill="#182316"/>
</svg>
