<svg width="47" height="96" viewBox="0 0 47 96" fill="none" xmlns="http://www.w3.org/2000/svg">
<g clip-path="url(#clip0_35_134)">
<path d="M6.75001 -1.747e-06C8.45001 0.199998 10.15 0.0999984 11.75 0.499998C14.05 1.1 16.35 1.9 18.45 3.1C31.55 10.4 41.15 21 45.05 35.3C49.05 49.9 45.85 63.7 35.45 75.2C30.25 81 23.95 85.4 16.95 88.8C15.65 89.4 14.45 90 12.35 91.1C15.25 92.4 17.45 93.4 19.75 94.4C19.65 94.7 19.65 95 19.55 95.4C18.85 95.5 18.15 95.8 17.45 95.7C13.95 95.4 10.45 95 6.95 94.6C4.65001 94.3 2.25 94.1 1.25 91.6C0.150005 89 1.65 86.8 3.35 85.1C5.75 82.8 8.45 80.7 11.15 78.7C11.75 78.3 12.85 78.7 13.75 78.7C13.75 79.6 14.05 80.7 13.65 81.3C12.35 83.1 10.75 84.6 9.15001 86.3C9.45 86.4 9.65001 86.6 9.75 86.5C31.65 78.8 44.75 62.8 42.45 40C42.35 38.9 42.15 37.8 41.75 36.7C36.85 21.4 27.35 10.1 12.75 3.2C10.85 2.3 8.65001 1.9 6.55001 1.3C6.65001 0.799998 6.65001 0.399998 6.75001 -1.747e-06Z" fill="#182316"/>
</g>
<defs>
<clipPath id="clip0_35_134">
<rect width="95.6" height="45.9" fill="white" transform="translate(46.75) rotate(90)"/>
</clipPath>
</defs>
</svg>
