<svg width="60" height="62" viewBox="0 0 60 62" fill="none" xmlns="http://www.w3.org/2000/svg">
<ellipse opacity="0.05" cx="30" cy="31" rx="30" ry="31" fill="#182316"/>
<path d="M40 31.5C40.8284 31.5 41.5 30.8284 41.5 30C41.5 29.1716 40.8284 28.5 40 28.5L40 31.5ZM18.9393 28.9393C18.3536 29.5251 18.3536 30.4749 18.9393 31.0607L28.4853 40.6066C29.0711 41.1924 30.0208 41.1924 30.6066 40.6066C31.1924 40.0208 31.1924 39.0711 30.6066 38.4853L22.1213 30L30.6066 21.5147C31.1924 20.9289 31.1924 19.9792 30.6066 19.3934C30.0208 18.8076 29.0711 18.8076 28.4853 19.3934L18.9393 28.9393ZM40 28.5L20 28.5L20 31.5L40 31.5L40 28.5Z" fill="#182316"/>
</svg>
