<svg width="60" height="62" viewBox="0 0 60 62" fill="none" xmlns="http://www.w3.org/2000/svg">
<ellipse opacity="0.05" cx="30" cy="31" rx="30" ry="31" fill="#182316"/>
<path d="M20 28.5C19.1716 28.5 18.5 29.1716 18.5 30C18.5 30.8284 19.1716 31.5 20 31.5V28.5ZM41.0607 31.0607C41.6464 30.4749 41.6464 29.5251 41.0607 28.9393L31.5147 19.3934C30.9289 18.8076 29.9792 18.8076 29.3934 19.3934C28.8076 19.9792 28.8076 20.9289 29.3934 21.5147L37.8787 30L29.3934 38.4853C28.8076 39.0711 28.8076 40.0208 29.3934 40.6066C29.9792 41.1924 30.9289 41.1924 31.5147 40.6066L41.0607 31.0607ZM20 31.5L40 31.5V28.5L20 28.5V31.5Z" fill="#182316"/>
</svg>
