<svg width="24" height="69" viewBox="0 0 24 69" fill="none" xmlns="http://www.w3.org/2000/svg">
<path d="M13.5 28C13.5 27.1716 12.8284 26.5 12 26.5C11.1716 26.5 10.5 27.1716 10.5 28L13.5 28ZM10.9393 68.5607C11.5251 69.1464 12.4749 69.1464 13.0607 68.5607L22.6066 59.0147C23.1924 58.4289 23.1924 57.4792 22.6066 56.8934C22.0208 56.3076 21.0711 56.3076 20.4853 56.8934L12 65.3787L3.51472 56.8934C2.92893 56.3076 1.97918 56.3076 1.3934 56.8934C0.80761 57.4792 0.80761 58.4289 1.3934 59.0147L10.9393 68.5607ZM10.5 28L10.5 67.5L13.5 67.5L13.5 28L10.5 28Z" fill="white"/>
<path d="M12 2L12 15.5" stroke="white" stroke-width="3" stroke-linecap="round"/>
</svg>
