<svg width="91" height="91" viewBox="0 0 91 91" fill="none" xmlns="http://www.w3.org/2000/svg">
<path d="M90.9763 43.0566C90.5025 43.6971 89.9102 44.0055 89.1283 43.7208C88.3465 43.4361 88.2044 42.7956 88.2518 42.0602C88.2518 41.7993 88.2754 41.5146 88.2518 41.2537C88.1807 40.3285 87.7542 39.9252 86.8302 39.9015C85.0771 39.8777 83.3476 39.9015 81.5944 39.9015C79.391 39.9015 77.9458 38.8339 77.3536 36.6989C76.6191 34.0657 75.553 31.5511 74.2262 29.1551C73.2075 27.281 73.4444 25.573 74.937 24.0547C76.1926 22.7974 77.4246 21.5164 78.6803 20.2591C79.4147 19.5 79.4147 19.0255 78.6803 18.2664C76.7139 16.2737 74.7238 14.281 72.71 12.2883C71.9755 11.5766 71.478 11.6004 70.7199 12.3358C69.5353 13.4982 68.3744 14.6843 67.1898 15.8467C65.4129 17.6022 63.8256 17.8394 61.6459 16.6533C59.3004 15.3723 56.8365 14.3522 54.2778 13.6168C52.1692 13.0237 51.1268 11.5766 51.1031 9.34672C51.1031 7.66241 51.1031 5.9781 51.1031 4.27007C51.1031 3.15511 50.6766 2.70438 49.5394 2.70438C46.8149 2.68066 44.0903 2.68066 41.3658 2.70438C40.2523 2.70438 39.8495 3.15511 39.8258 4.2938C39.8258 6.04927 39.8258 7.78102 39.8258 9.5365C39.8021 11.4818 38.7597 13 36.8881 13.5219C34.1161 14.3047 31.4863 15.4434 28.9513 16.7956C27.1981 17.7445 25.4923 17.4599 24.0708 16.0602C22.7915 14.8266 21.5358 13.5693 20.2801 12.312C19.4509 11.5055 18.9771 11.4818 18.1716 12.2883C16.2288 14.2099 14.3098 16.1314 12.3908 18.0766C11.5379 18.9307 11.5379 19.4051 12.3671 20.2591C13.5043 21.4215 14.6652 22.5602 15.8261 23.7226C17.5793 25.5018 17.8162 27.0912 16.6553 29.2737C15.3759 31.6223 14.3572 34.0894 13.6228 36.6515C13.0305 38.7628 11.5853 39.8303 9.35824 39.8303C7.65243 39.8303 5.92294 39.8303 4.21713 39.8303C3.19839 39.8303 2.74824 40.2573 2.72455 41.3011C2.70086 44.0766 2.70086 46.8759 2.72455 49.6515C2.72455 50.6715 3.19839 51.0985 4.21713 51.0985C5.97032 51.1223 7.69982 51.0985 9.45301 51.0985C11.5142 51.0985 12.9831 52.1661 13.5517 54.1113C14.3335 56.8631 15.4233 59.4726 16.8211 61.9635C17.7688 63.6715 17.4845 65.427 16.063 66.9453C14.8784 68.1788 13.6464 69.3887 12.4382 70.5985C11.5379 71.5 11.5379 71.9507 12.4145 72.8285C14.3098 74.75 16.2288 76.6478 18.1242 78.5456C19.0008 79.4234 19.4509 79.3996 20.3512 78.5219C21.6069 77.2883 22.8388 76.0547 24.0945 74.8449C25.5397 73.4453 27.2692 73.1843 29.0461 74.1569C31.4626 75.4854 33.9977 76.5766 36.6511 77.312C38.7597 77.9051 39.8258 79.3759 39.8258 81.5584C39.8258 83.2664 39.8258 84.9982 39.8258 86.7062C39.8258 87.7263 40.2523 88.2007 41.271 88.2007C44.043 88.2244 46.8386 88.2244 49.6105 88.2007C50.6293 88.2007 51.0557 87.7263 51.0557 86.7062C51.0794 84.927 51.0557 83.1478 51.0557 81.3686C51.0794 79.3759 52.1455 77.9051 54.0646 77.3595C56.8128 76.5766 59.4189 75.4854 61.9302 74.0858C63.6597 73.1369 65.3892 73.3978 66.9055 74.8449C68.1375 76.031 69.3457 77.2646 70.554 78.4744C71.4543 79.3759 71.9045 79.3996 72.7811 78.5219C74.7001 76.6241 76.5954 74.7026 78.4908 72.8047C79.3673 71.927 79.3673 71.4288 78.4908 70.5511C77.2825 69.3175 76.0505 68.1314 74.8659 66.8978C73.3733 65.3796 73.1127 63.6715 74.1552 61.7974C75.4819 59.4015 76.5243 56.8869 77.2825 54.2536C77.8748 52.1186 79.32 51.0748 81.5233 51.0511C83.2054 51.0511 84.8875 51.0511 86.5933 51.0511C87.7542 51.0511 88.1807 50.6241 88.2044 49.438C88.2044 49.2719 88.2044 49.0821 88.2044 48.9161C88.1807 48.1807 88.3228 47.5401 89.081 47.2555C89.8628 46.9708 90.4551 47.3029 90.9289 47.9197C90.9289 48.9872 90.9289 50.0547 90.9289 51.1223C89.9576 53.3047 88.2044 54.0876 85.9063 53.9927C84.4611 53.9215 83.0159 53.9927 81.547 53.969C80.7178 53.9453 80.2203 54.3011 80.007 55.1077C79.2489 57.9069 78.1591 60.5401 76.7139 63.0547C76.2874 63.8139 76.3585 64.4307 76.9982 65.0237C78.2301 66.2099 79.4384 67.4434 80.6467 68.677C82.4947 70.5748 82.4947 72.8522 80.6467 74.7263C78.6803 76.719 76.6902 78.7117 74.6764 80.7044C72.8047 82.5547 70.5303 82.5547 68.635 80.7044C67.403 79.4945 66.1947 78.2847 64.9865 77.0511C64.3705 76.4106 63.7782 76.3394 63.02 76.7664C60.5087 78.1898 57.8789 79.3047 55.0833 80.0639C54.2778 80.2774 53.9224 80.7756 53.9461 81.6058C53.9698 83.0529 53.8987 84.5 53.9698 85.9708C54.0883 88.2719 53.3064 90.0274 51.1031 91C47.3124 91 43.5217 91 39.7311 91C37.5514 90.0274 36.7696 88.2719 36.8644 85.9708C36.9354 84.5237 36.8407 83.0766 36.8881 81.6058C36.9117 80.7518 36.5564 80.2774 35.7508 80.0639C32.9552 79.3047 30.3254 78.2135 27.8141 76.7664C27.056 76.3394 26.44 76.4106 25.8477 77.0511C24.6631 78.2847 23.4311 79.4945 22.1992 80.7044C20.3038 82.5547 18.0294 82.5547 16.1578 80.7044C14.1677 78.7354 12.1776 76.7427 10.1875 74.7263C8.33949 72.8522 8.33949 70.5748 10.1875 68.677C11.3957 67.4434 12.604 66.2336 13.836 65.0237C14.452 64.4069 14.5467 63.8139 14.1203 63.0547C12.6988 60.5401 11.5853 57.9069 10.8271 55.1077C10.6139 54.3011 10.1164 53.9453 9.28716 53.969C7.84197 53.9927 6.39677 53.9215 4.92788 53.9927C2.72455 54.2062 0.971362 53.4234 0 51.2409C0 47.4453 0 43.6496 0 39.854C0.971362 37.6715 2.72455 36.8887 5.02265 36.9836C6.46785 37.0547 7.91304 36.9836 9.38193 37.0073C10.2111 37.031 10.7087 36.6752 10.9219 35.8686C11.68 33.0931 12.7699 30.4361 14.215 27.9215C14.6652 27.1624 14.5704 26.5456 13.9307 25.9526C12.6988 24.7664 11.4905 23.5328 10.2822 22.2993C8.43426 20.4015 8.43426 18.1241 10.2822 16.25C12.2723 14.2573 14.2387 12.2646 16.2525 10.2719C18.1242 8.39781 20.3986 8.42153 22.2939 10.2719C23.5259 11.4818 24.7342 12.6916 25.9425 13.9252C26.5584 14.5657 27.1507 14.6369 27.9089 14.2099C30.4202 12.7865 33.05 11.6715 35.8456 10.9124C36.6511 10.6989 37.0065 10.2007 36.9828 9.37044C36.9591 7.92336 37.0302 6.47628 36.9591 5.00547C36.8407 2.7281 37.6225 0.972628 39.8021 0C43.5928 0 47.3835 0 51.1742 0C53.3538 0.972628 54.1356 2.7281 54.0409 5.0292C53.9698 6.47628 54.0646 7.92336 54.0172 9.39416C53.9935 10.2245 54.3489 10.7226 55.1544 10.9361C57.9263 11.6953 60.5798 12.7865 63.0911 14.2336C63.8493 14.6843 64.4652 14.5894 65.0575 13.9489C66.2421 12.7153 67.4741 11.5055 68.7061 10.2956C70.6014 8.44526 72.8758 8.44526 74.7475 10.2956C76.7376 12.2646 78.7277 14.2573 80.7178 16.2737C82.5657 18.1478 82.5657 20.4252 80.7178 22.323C79.5095 23.5566 78.3012 24.7664 77.0692 25.9763C76.4296 26.5931 76.3585 27.1861 76.785 27.9453C78.2065 30.4599 79.32 33.0931 80.0781 35.8923C80.2913 36.6989 80.7889 37.0547 81.6181 37.031C83.0633 37.0073 84.5085 37.0785 85.9773 37.0073C88.2754 36.8887 90.0286 37.6715 91 39.8777C90.9763 40.9215 90.9763 41.989 90.9763 43.0566Z" fill="#182316"/>
<path d="M45.346 67.7755C56.6707 67.7518 65.9578 59.6624 67.4978 48.6314C69.2036 36.5328 60.9352 25.4069 48.805 23.5091C47.6441 23.3193 47.0755 22.7026 47.2177 21.7774C47.3598 20.8996 48.1416 20.4726 49.2788 20.6624C60.4613 22.6077 68.635 30.8631 70.3408 41.9653C71.8808 51.8102 66.8581 62.2244 58.1869 67.2062C45.6066 74.4179 30.207 70.0529 23.2416 57.2901C17.7214 47.1843 20.2564 33.8759 29.0698 26.4507C32.7657 23.3431 36.9591 21.3741 41.7449 20.6387C42.811 20.4726 43.5928 20.9234 43.735 21.7774C43.8771 22.6788 43.3085 23.2956 42.2187 23.4854C32.4577 25.1697 25.3028 31.9544 23.597 41.562C21.2278 54.7518 30.515 65.9015 42.2424 67.562C43.3559 67.7518 44.4457 67.7518 45.346 67.7755Z" fill="#182316"/>
<path d="M30.4913 44.3139C30.5624 42.1788 31.5337 40.6131 33.4764 39.7828C35.4192 38.9525 37.2671 39.2847 38.8308 40.7555C40.2049 42.0602 41.5553 43.4124 42.8584 44.7646C43.3796 45.3102 43.7113 45.2628 44.2088 44.7409C46.7438 42.1551 49.3025 39.6168 51.8612 37.0547C53.3301 35.5602 55.107 35.0858 57.0734 35.75C59.0161 36.3905 60.1297 37.8139 60.3903 39.8777C60.5798 41.4197 60.0823 42.7719 59.0161 43.8631C54.9649 47.9197 50.9609 51.9763 46.886 55.9854C44.9432 57.8832 42.0055 57.8358 40.0864 55.938C37.3382 53.2336 34.6373 50.5055 31.9128 47.7774C30.9651 46.8285 30.4913 45.6661 30.4913 44.3139ZM57.5236 40.2099C57.4999 40.1387 57.4762 39.9015 57.3814 39.688C56.7891 38.1934 55.0596 37.9325 53.8276 39.1423C50.8662 42.0839 47.9284 45.0493 44.9669 48.0146C43.8297 49.1533 43.1901 49.1533 42.0528 48.0383C40.3944 46.3777 38.736 44.7172 37.0776 43.0803C36.509 42.5109 35.8693 42.1077 35.0164 42.2974C34.282 42.4635 33.6897 42.8668 33.5001 43.6259C33.2869 44.4799 33.4291 45.239 34.0924 45.9033C36.6748 48.4653 39.2335 51.0511 41.8159 53.6369C42.9058 54.7281 44.0666 54.7518 45.1802 53.6606C49.0656 49.7938 52.9274 45.9033 56.8128 42.0365C57.2393 41.5858 57.5236 41.0401 57.5236 40.2099Z" fill="#182316"/>
</svg>
