<svg width="107" height="84" viewBox="0 0 107 84" fill="none" xmlns="http://www.w3.org/2000/svg">
<path d="M107 71.1949C106.108 73.3085 104.52 74.1984 102.235 74.1984C96.9688 74.1428 91.7302 74.1706 86.4638 74.1706C85.9901 74.1706 85.4885 74.2262 85.0427 73.9481C84.4018 73.5866 84.0675 73.0582 84.151 72.3073C84.2068 71.6121 84.5969 71.1671 85.2378 70.9168C85.7393 70.7221 86.2688 70.7499 86.7982 70.7499C91.9253 70.7499 97.0245 70.7499 102.152 70.7499C103.684 70.7499 103.823 70.6109 103.823 69.0813C103.823 66.1891 103.796 63.3246 103.851 60.4323C103.851 59.6258 103.601 59.3199 102.792 59.3477C100.786 59.4034 98.7521 59.3477 96.7458 59.3477C66.1227 59.3477 35.5273 59.3477 4.90417 59.3477C3.26016 59.3477 3.26016 59.3477 3.26016 60.9885C3.26016 63.6583 3.26016 66.3281 3.26016 69.0257C3.26016 70.6109 3.39948 70.7499 4.98776 70.7499C29.3693 70.7499 53.7508 70.7499 78.1323 70.7499C78.6896 70.7499 79.2469 70.7499 79.8042 70.8334C80.6958 71.0002 81.2253 71.5843 81.1974 72.5298C81.1695 73.4475 80.5844 74.0037 79.6927 74.115C79.1911 74.1984 78.6617 74.1428 78.1323 74.1428C74.9279 74.1428 71.7234 74.1706 68.519 74.1428C67.7109 74.1428 67.4044 74.3931 67.4323 75.2274C67.488 76.6457 67.488 78.0919 67.4323 79.5102C67.4044 80.3445 67.7388 80.6226 68.519 80.5948C69.132 80.567 69.7729 80.567 70.3859 80.6504C71.4169 80.7895 72.0299 81.5125 72.0021 82.3746C71.9464 83.2646 71.2776 83.9042 70.2745 83.9876C69.9958 84.0154 69.7172 83.9876 69.4385 83.9876C58.8779 83.9876 48.3451 83.9876 37.7844 83.9876C37.5893 83.9876 37.3664 83.9876 37.1714 83.9876C35.9453 83.9598 35.193 83.3202 35.1651 82.319C35.1372 81.3457 35.9174 80.6782 37.1435 80.5948C37.2828 80.5948 37.4221 80.5948 37.5615 80.5948C40.0135 80.567 39.7349 80.8729 39.7349 78.4256C39.7349 77.3132 39.707 76.2008 39.7349 75.0883C39.7628 74.3931 39.4841 74.1428 38.8154 74.1706C38.5089 74.1984 38.2023 74.1706 37.868 74.1706C26.8615 74.1706 15.8549 74.1428 4.84844 74.1984C2.56354 74.1984 0.97526 73.3085 0.0835938 71.1949C0 48.4739 0 25.7251 0 3.00412C0.891667 0.890541 2.47995 -0.0271976 4.76484 0.000612668C8.91667 0.0562332 13.0406 0.0284229 17.1924 0.0284229C17.5826 0.0284229 17.9727 0.000612663 18.3349 0.0840435C19.143 0.278715 19.6167 0.807111 19.6445 1.64142C19.6724 2.44792 19.2266 3.00412 18.4464 3.28222C17.9727 3.44909 17.499 3.42128 16.9974 3.42128C12.9292 3.42128 8.86094 3.42128 4.76484 3.42128C3.37161 3.42128 3.17656 3.61595 3.17656 4.97865C3.17656 21.5814 3.17656 38.2119 3.1487 54.8147C3.1487 55.6768 3.42734 55.9549 4.29115 55.9549C9.7526 55.9271 15.2141 55.9271 20.7034 55.9549C21.5951 55.9549 21.9852 55.6768 21.9016 54.759C21.8458 53.9247 21.8737 53.0904 21.9016 52.2561C21.9852 50.8934 22.5982 50.3094 23.9357 50.2816C24.9109 50.2538 25.8862 50.2538 26.8615 50.2816C27.4745 50.3094 27.8089 50.1147 27.9482 49.4751C28.5891 46.8331 29.6201 44.3024 31.069 41.9941C31.4034 41.4935 31.3477 41.1598 30.9297 40.7427C30.1773 40.0474 29.425 39.2965 28.7005 38.5457C27.8646 37.6557 27.8367 36.7658 28.7005 35.8759C30.3445 34.2072 31.9885 32.5664 33.6604 30.9256C34.58 30.0357 35.388 30.0635 36.3076 30.9534C37.0042 31.6209 37.7286 32.2883 38.3695 33.0114C38.8432 33.5398 39.2333 33.6232 39.9021 33.2339C42.1313 31.8712 44.5276 30.8144 47.0911 30.2304C47.732 30.0913 48.0385 29.7576 48.0107 29.0902C47.9828 28.1446 47.9828 27.1991 48.0107 26.2813C48.0664 24.8074 48.6794 24.1956 50.1562 24.1956C52.3576 24.1956 54.531 24.1956 56.7323 24.1956C58.2091 24.1956 58.8221 24.8074 58.8779 26.2813C58.9057 27.1434 58.9336 28.0334 58.8779 28.8955C58.8221 29.6742 59.1008 30.0913 59.9089 30.286C62.4445 30.87 64.7852 31.9268 67.0143 33.2617C67.5995 33.6232 67.9896 33.6232 68.4633 33.0948C69.132 32.344 69.8565 31.6487 70.6089 30.9534C71.5284 30.0635 72.3365 30.0635 73.256 30.9256C74.9279 32.5386 76.5719 34.2072 78.2159 35.8759C79.0797 36.7658 79.0518 37.6279 78.2159 38.5457C77.4635 39.3243 76.7112 40.0752 75.931 40.8261C75.5688 41.1876 75.5409 41.4657 75.7917 41.9107C77.2964 44.2746 78.3273 46.8609 78.9961 49.5863C79.1354 50.1425 79.4419 50.3094 79.9714 50.2816C80.9466 50.2816 81.9219 50.2816 82.8971 50.2816C84.374 50.3094 84.987 50.8934 85.0427 52.3674C85.0706 53.2295 85.0706 54.1194 85.0427 54.9815C85.0149 55.7046 85.3214 55.9549 86.0458 55.9549C91.6466 55.9271 97.2474 55.9271 102.876 55.9549C103.545 55.9549 103.796 55.7046 103.796 55.0371C103.768 53.3963 103.796 51.7833 103.796 50.1425C103.796 35.264 103.796 20.3855 103.796 5.50705C103.796 3.44909 103.768 3.42128 101.678 3.42128C76.4047 3.42128 51.1036 3.42128 25.8305 3.42128C25.301 3.42128 24.7716 3.44909 24.2701 3.36566C23.2669 3.2266 22.5703 2.53135 22.5982 1.66923C22.626 0.75149 23.3505 0.0840435 24.4094 0.0284229C24.6602 0.000612667 24.8831 0.0284229 25.1339 0.0284229C50.825 0.0284229 76.544 0.0284229 102.235 0.000612668C104.52 0.000612668 106.108 0.890541 107 3.00412C107 25.7251 107 48.4739 107 71.1949ZM73.869 55.9271C76.1539 55.9271 78.4667 55.8993 80.7516 55.9271C81.5596 55.9271 81.6432 55.5099 81.6432 54.8703C81.6154 54.2585 81.699 53.6466 80.7794 53.6744C79.8878 53.7022 78.9682 53.7022 78.0766 53.6466C76.8227 53.5632 76.2654 53.1182 76.0703 51.9224C75.4573 48.3905 74.1198 45.1923 72.0578 42.2722C71.3891 41.2989 71.4727 40.6036 72.2807 39.7415C72.9216 39.0462 73.5904 38.4066 74.287 37.7392C74.6771 37.3498 74.7885 37.0439 74.3427 36.6267C73.7018 36.0427 73.0888 35.4309 72.5037 34.7913C72.1135 34.3741 71.8349 34.4575 71.4727 34.8191C70.8875 35.4587 70.2466 36.0427 69.6336 36.6545C68.5469 37.7113 67.9339 37.767 66.7078 36.9327C63.9771 35.0694 60.9956 33.7623 57.7354 33.1505C55.8685 32.8167 55.5898 32.3996 55.562 30.4807C55.4784 27.0044 56.2586 27.5884 52.4969 27.5328C51.8003 27.5328 51.4659 27.7831 51.4938 28.5061C51.5216 29.3961 51.5216 30.3138 51.4938 31.2037C51.4659 32.1493 50.9922 32.8167 50.0448 32.9836C46.3667 33.6232 43.0508 35.0137 40.0135 37.1273C39.2333 37.6835 38.4253 37.5723 37.7286 36.9048C37.032 36.2374 36.3354 35.5421 35.6667 34.8469C35.2487 34.4019 34.9422 34.3185 34.4964 34.8191C33.9948 35.4031 33.4375 35.9315 32.8802 36.4321C32.3508 36.9048 32.2672 37.2664 32.8523 37.767C33.4654 38.2954 33.9948 38.8794 34.5521 39.4634C35.6388 40.5758 35.6945 41.1876 34.8029 42.4669C32.8802 45.2479 31.5984 48.3071 31.0133 51.6443C30.7625 53.0626 30.2052 53.5354 28.7563 53.5632C27.8924 53.591 27.0286 53.5632 26.137 53.591C25.2453 53.591 25.4125 54.2585 25.3846 54.7868C25.3568 55.3431 25.3846 55.8714 26.1648 55.8436C26.75 55.8158 27.3352 55.8436 27.9482 55.8436C31.8771 55.8436 35.806 55.8158 39.7628 55.8714C40.6823 55.8714 41.0167 55.5933 40.9609 54.6756C40.9331 54.0916 41.0445 53.5076 41.156 52.9236C42.3542 46.8887 48.2893 42.4391 54.4753 42.9397C60.7448 43.4403 65.8997 48.6408 66.1227 54.7868C66.1505 55.5933 66.4013 55.8714 67.2372 55.8714C69.4385 55.8993 71.6399 55.9271 73.869 55.9271ZM53.4443 55.9271C56.2307 55.9271 59.0172 55.9271 61.8036 55.9271C62.4445 55.9271 62.8904 55.8714 62.8068 55.0371C62.5839 53.0626 61.943 51.2549 60.6333 49.6976C58.1255 46.7497 54.2245 45.6373 50.6021 46.8331C47.0076 48.0011 44.4997 51.2271 44.1654 55.0371C44.1096 55.788 44.444 55.9271 45.0849 55.9271C47.8714 55.9271 50.6578 55.9271 53.4443 55.9271ZM53.4721 74.1706C50.3513 74.1706 47.2026 74.1984 44.0818 74.1706C43.3294 74.1706 43.0229 74.4209 43.0229 75.1996C43.0508 76.6457 43.0508 78.1197 43.0229 79.5658C43.0229 80.2611 43.2737 80.567 43.9982 80.567C50.3234 80.567 56.6766 80.567 63.0018 80.567C63.6706 80.567 63.9492 80.2889 63.9492 79.6214C63.9214 78.2031 63.9214 76.7848 63.9492 75.3386C63.9771 74.4487 63.6984 74.115 62.751 74.115C59.6859 74.1984 56.593 74.1706 53.4721 74.1706Z" fill="#182316"/>
<path d="M21.6229 13.489C18.2792 13.489 14.9354 13.489 11.5917 13.489C10.2542 13.489 9.47396 12.5991 9.78047 11.4311C10.0591 10.3743 10.8672 10.2074 11.8146 10.2074C17.1646 10.2074 22.5424 10.2074 27.8924 10.2074C29.1464 10.2074 30.4003 10.1796 31.6542 10.2074C32.7409 10.2352 33.4654 10.8749 33.4932 11.7926C33.5211 12.766 32.7966 13.4612 31.6542 13.4612C28.3104 13.5168 24.9667 13.489 21.6229 13.489Z" fill="#182316"/>
</svg>
