<svg width="104" height="77" viewBox="0 0 104 77" fill="none" xmlns="http://www.w3.org/2000/svg">
<path d="M102.111 77C85.2701 77 68.4023 77 51.5619 77C35.0226 77 18.456 77 1.9168 77C0.985782 77 0.410743 76.7266 0 76.0703V74.7305C0.410743 74.0742 1.01316 73.8008 1.97156 73.8008H2.02633C3.53239 73.8281 5.14797 73.8281 7.03739 73.8281C8.65298 73.8281 10.2686 73.8281 11.8568 73.8281H13.4997C13.5545 73.8281 13.5819 73.8281 13.6367 73.8281C13.7188 73.8281 13.8283 73.8555 13.9105 73.8555C14.4855 73.8555 14.732 73.5 14.8141 73.2812C15.0332 72.7344 14.6772 72.3242 14.5129 72.1601C14.4855 72.1328 14.4581 72.0781 14.4308 72.0508C13.1438 70.2461 12.4044 68.25 12.2675 66.1719C12.1854 65.1601 11.6925 64.6953 10.7067 64.6953H10.6245C10.0495 64.6953 9.50184 64.7227 8.9268 64.7227C8.51606 64.7227 8.07794 64.7227 7.66719 64.7227C7.25645 64.7227 6.84571 64.7227 6.43497 64.7227C2.8752 64.7227 1.31438 63.6562 0 60.375V4.34766C1.28699 1.06641 2.84781 0 6.40758 0H34.5571C44.415 0 54.2454 0 64.0758 0C67.6082 0 69.9631 2.37891 69.9905 5.87891C69.9905 8.66797 69.9905 11.4297 69.9905 14.2188C69.9905 15.6133 69.9905 17.0078 69.9905 18.375C69.9905 20.2344 70.237 20.4805 72.1538 20.4805C73.6051 20.4805 75.0837 20.4805 76.535 20.4805C78.0411 20.4805 79.5471 20.4805 81.0258 20.4805C83.3807 20.4805 85.3249 20.4805 87.1322 20.4531H87.2417C89.9526 20.4531 91.7873 21.6016 92.9921 24.0898C94.1422 26.4687 95.3744 28.875 96.5245 31.1992L96.9079 31.9922C98.5782 35.3281 100.249 38.6367 101.946 41.9727L103.973 45.9648V60.3203C103.37 62.125 102.33 63.3828 100.796 64.1484C100.249 64.4219 99.9473 64.8867 99.9473 65.5156C99.8926 67.8945 99.1259 70.1367 97.6472 72.1601C97.4829 72.3789 97.1269 72.8438 97.3734 73.3359C97.6198 73.8008 98.1948 73.8008 98.4413 73.8008C98.4413 73.8008 98.7425 73.8008 98.8794 73.8008C99.1806 73.8008 99.4818 73.8008 99.8104 73.8008C100.112 73.8008 100.44 73.8008 100.741 73.8008C101.234 73.8008 101.618 73.8008 102.001 73.7734C102.056 73.7734 102.111 73.7734 102.165 73.7734C103.014 73.7734 103.589 74.0742 104 74.7031V76.043C103.617 76.7266 103.014 77 102.111 77ZM77.3291 73.8281C77.3839 73.8281 77.466 73.8281 77.5482 73.8555C77.6577 73.8828 77.7946 73.8828 77.9315 73.8828C78.5066 73.8828 78.7804 73.5273 78.8626 73.3359C79.1364 72.7617 78.7256 72.2969 78.5066 72.0781C78.4518 72.0234 78.397 71.9687 78.3697 71.9141C77.1922 70.2187 76.5076 68.3867 76.3433 66.5C76.2338 65.2148 75.6861 64.6953 74.3992 64.6953H74.3718C71.4692 64.7227 68.3202 64.7227 64.2127 64.7227C62.5972 64.7227 54.3549 64.7227 54.3549 64.7227H46.1675C43.3196 64.7227 40.4718 64.7227 37.6514 64.7227C36.8573 64.7227 35.981 64.9141 35.8715 66.3086C35.7346 68.2773 35.05 70.1914 33.8452 71.9414C33.8178 71.9688 33.763 72.0508 33.7083 72.0781C33.5166 72.2695 32.9963 72.8164 33.4071 73.4727C33.544 73.6641 33.7904 73.9101 34.2833 73.9101C34.4202 73.9101 34.5298 73.9102 34.6393 73.8828C34.7214 73.8828 34.7762 73.8555 34.8583 73.8555C39.5682 73.8555 44.3054 73.8555 49.0153 73.8555H63.2817C67.9642 73.8281 72.6467 73.8281 77.3291 73.8281ZM88.0906 56.5469C84.0653 56.5469 79.684 59.5 79.5198 64.9688C79.3828 69.6992 82.9974 73.5 87.9537 73.8008H87.981C92.8278 73.7187 96.5245 70.1641 96.7709 65.2969C96.8805 63.1367 96.0864 61.0312 94.5255 59.3633C92.91 57.6406 90.6646 56.6016 88.3096 56.5469C88.2549 56.5469 88.1727 56.5469 88.0906 56.5469ZM23.9874 56.5469C19.9895 56.5469 15.6356 59.5 15.4713 64.9688C15.307 69.6992 18.9489 73.5 23.9052 73.8008H23.9326C28.8889 73.7461 32.5856 70.1641 32.6951 65.2969C32.8046 60.4844 29.1901 56.7383 24.2886 56.5469C24.179 56.5469 24.0695 56.5469 23.9874 56.5469ZM73.8515 61.4961C74.317 61.4961 74.7004 61.4961 75.029 61.5234C75.1111 61.5234 75.2206 61.5234 75.3028 61.5234C76.535 61.5234 77.0553 60.7852 77.4386 60.0469C79.5197 55.8906 82.8605 53.6211 87.3239 53.3477C87.6524 53.3203 87.9537 53.3203 88.2549 53.3203C92.6635 53.3203 96.1137 55.3984 98.5782 59.4727C98.6056 59.5273 98.633 59.6094 98.6603 59.7187C98.7699 60.0195 98.9889 60.6758 99.6735 60.6758C99.7557 60.6758 99.8652 60.6484 99.9747 60.6211C100.741 60.4023 100.824 59.6094 100.878 59.1172C100.878 59.0625 100.906 58.9805 100.906 58.9258C100.933 58.6797 100.933 58.4609 100.933 58.2422C100.933 58.1875 100.933 58.1055 100.933 58.0508C100.933 55.5898 100.933 53.1289 100.933 50.668C100.933 48.5625 100.687 48.3164 98.6056 48.3164H87.8167C84.2296 48.3164 80.6424 48.3164 77.0279 48.3164C75.5219 48.3164 75.029 47.8242 75.029 46.3203C75.029 41.043 75.029 35.793 75.029 30.7344C75.029 29.2305 75.5219 28.7656 77.0553 28.7656C79.0816 28.7656 81.1079 28.7656 83.1617 28.7656C85.0237 28.7656 86.8857 28.7656 88.7751 28.7656H89.4871C90.1443 28.7656 90.6919 28.7656 90.9658 28.3555C91.2396 27.9453 91.0205 27.5078 90.6919 26.7969C90.6098 26.6055 90.5276 26.4141 90.4181 26.168C89.6788 24.4727 88.5013 23.707 86.6119 23.707H86.475C84.6403 23.7344 82.6688 23.7617 80.2043 23.7617C78.8626 23.7617 77.5482 23.7617 76.2064 23.7617C74.8647 23.7617 73.5503 23.7617 72.2085 23.7617H71.9895C70.237 23.7617 69.9905 24.0078 69.9905 25.7305C69.9905 29.8594 69.9905 33.9883 69.9905 38.1172V47.1133C69.9905 51.3242 69.9905 55.5352 69.9905 59.7734C69.9905 61.3594 70.2644 61.6328 71.8799 61.6328H71.9621C72.2633 61.6328 72.5919 61.6328 72.8931 61.6328C73.2491 61.4961 73.5503 61.4961 73.8515 61.4961ZM9.28278 61.5234C9.99473 61.5234 10.5698 61.5234 11.09 61.5508C11.1448 61.5508 11.1722 61.5508 11.227 61.5508C12.4318 61.5508 12.9247 60.8672 13.3081 60.1562C15.5808 55.6445 19.1954 53.375 24.0421 53.3477H24.0969C28.9163 53.3477 32.5034 55.6172 34.8036 60.1289C35.3239 61.1406 35.9537 61.5508 37.0764 61.5508C42.6077 61.5234 48.0295 61.5234 52.575 61.5234H64.7056C66.6224 61.5234 66.8415 61.2773 66.8415 59.418C66.8415 59.418 66.8415 21.9023 66.8415 6.83594C66.8415 4.07422 65.9652 3.19922 63.1996 3.19922H19.9073C15.3618 3.19922 10.8436 3.19922 6.29805 3.19922C4.08004 3.19922 3.03949 4.18359 3.03949 6.28906C3.03949 11.375 3.03949 16.4336 3.03949 21.5195C3.03949 28.8477 3.03949 36.1758 3.03949 43.5039C3.03949 43.8594 3.09426 44.3789 3.45024 44.7617C3.80621 45.1172 4.32649 45.1719 4.65508 45.1719C4.68246 45.1719 4.73723 45.1719 4.76461 45.1719C5.36704 45.1445 5.96946 45.1445 6.73618 45.1445C7.3386 45.1445 7.94102 45.1445 8.54344 45.1445H9.28278C10.7888 45.1445 11.2543 45.6367 11.2817 47.168C11.2817 49.9023 11.2817 52.3086 11.2817 54.5508C11.2817 55.9727 10.7615 56.4922 9.31016 56.5195C8.59821 56.5195 7.91364 56.5195 7.20168 56.5195H4.60032C4.18957 56.5195 3.36809 56.5195 3.09426 57.4492C2.79305 58.5156 2.95735 59.5547 3.53239 60.3203C4.10743 61.0859 5.06582 61.5234 6.18852 61.5508C6.43497 61.5508 6.68141 61.5508 6.90047 61.5508C7.28383 61.5508 7.69458 61.5508 8.07794 61.5508C8.51606 61.5234 8.89942 61.5234 9.28278 61.5234ZM5.53133 48.2891C3.31332 48.2891 3.06688 48.5352 3.06688 50.7773C3.06688 53.0469 3.31332 53.3203 5.53133 53.3203H5.5861C7.85887 53.3203 8.10532 53.0742 8.10532 50.8867C8.10532 50.7227 8.10532 50.5859 8.10532 50.4492C8.10532 49.5195 8.10532 49.0273 7.74934 48.6445C7.42075 48.3164 6.95524 48.2891 6.27067 48.2891H5.53133ZM79.9031 31.8555C79.5471 31.8555 78.9995 31.9102 78.6435 32.2656C78.2601 32.6484 78.2327 33.1953 78.2327 33.6055C78.2601 37.2148 78.2601 40.3867 78.2327 43.3125C78.2327 43.7227 78.2601 44.2695 78.6435 44.6797C79.0269 45.0625 79.5745 45.1172 79.9579 45.1172H80.04C81.1627 45.0898 82.4223 45.0898 83.9284 45.0898C84.7499 45.0898 85.5714 45.0898 86.3928 45.0898C87.2143 45.0898 88.0358 45.0898 88.8573 45.0898H93.9779C95.2923 45.0898 96.5793 45.0898 97.8936 45.0898C98.4413 45.0898 98.9889 45.0898 99.2628 44.6523C99.5366 44.2148 99.2902 43.7227 99.0437 43.2578C98.4413 42.0547 97.8389 40.8242 97.2364 39.6211C96.1685 37.4883 95.0458 35.2734 93.9779 33.0859C93.5398 32.2109 92.9373 31.8281 92.0063 31.8281H91.9789C89.8978 31.8555 87.8441 31.8555 85.8726 31.8555C83.8736 31.8555 81.9021 31.8555 79.9853 31.8281L79.9031 31.8555Z" fill="#182316"/>
<path d="M42.8541 15.4492C38.6098 15.4492 34.3655 15.4492 30.1211 15.4219C29.2996 15.4219 28.6972 14.793 28.6698 13.8906C28.6424 12.9883 29.2449 12.3594 30.1759 12.2773C30.3402 12.2773 30.5319 12.25 30.6688 12.25H48.2212C50.6035 12.25 52.9858 12.25 55.3955 12.25H55.8336C56.0253 12.25 56.2443 12.25 56.436 12.2773C57.1754 12.3867 57.723 13.043 57.723 13.8359C57.723 14.6289 57.2027 15.2578 56.436 15.3945C56.4086 15.3945 56.3539 15.3945 56.3265 15.3945C56.2717 15.4492 45.3734 15.4492 42.8541 15.4492Z" fill="#182316"/>
<path d="M42.2791 23.6797C41.1564 23.6797 40.0063 23.6797 38.8836 23.6797C38.1443 23.6797 37.5966 23.5156 37.268 23.1602C37.0216 22.9141 36.8847 22.5312 36.8847 22.0664C36.8847 20.7812 37.9526 20.5078 38.8289 20.5078C41.6493 20.5078 44.4423 20.5078 47.2628 20.5078C50.1106 20.5078 52.931 20.5078 55.7788 20.5078C56.6551 20.5078 57.6956 20.7812 57.723 22.0664C57.723 22.5312 57.6135 22.8867 57.3397 23.1602C57.0111 23.4883 56.4634 23.6797 55.7241 23.6797C54.574 23.6797 53.3965 23.6797 52.2464 23.6797H42.2791Z" fill="#182316"/>
<path d="M21.9884 15.4492C21.5503 15.4492 21.1395 15.2852 20.8657 14.9844C20.5919 14.6836 20.4276 14.2734 20.4276 13.8359C20.455 12.9609 21.1122 12.3047 21.9884 12.3047C22.4265 12.3047 22.8373 12.4687 23.1385 12.7422C23.4397 13.043 23.5766 13.4258 23.5766 13.8633C23.5766 14.793 22.9194 15.4492 21.9884 15.4492Z" fill="#182316"/>
<path d="M24.0147 68.7969C23.029 68.7969 22.1253 68.4141 21.4681 67.7305C20.7836 67.0469 20.4276 66.0898 20.4276 65.0508C20.455 63.0547 22.0432 61.5234 24.0969 61.5234H24.1243C26.178 61.5508 27.7114 63.1094 27.684 65.1602C27.684 67.2109 26.0958 68.7695 24.0147 68.7695V68.7969Z" fill="#182316"/>
<path d="M88.1453 68.7969C87.1322 68.7969 86.2285 68.4141 85.544 67.7578C84.8594 67.0742 84.5034 66.1445 84.5034 65.1055C84.5308 63.0547 86.0916 61.5234 88.1453 61.5234C89.1585 61.5234 90.0621 61.9062 90.7467 62.5625C91.4313 63.2461 91.7873 64.1758 91.7873 65.1875C91.7599 67.2109 90.1717 68.7969 88.1453 68.7969Z" fill="#182316"/>
</svg>
