<svg width="110" height="64" viewBox="0 0 110 64" fill="none" xmlns="http://www.w3.org/2000/svg">
<rect width="110" height="64" rx="32" fill="#182316"/>
<path d="M55.4815 20.6237C59.3319 20.6237 59.8089 20.6237 61.3422 20.6919C62.7393 20.76 63.523 20.9985 64.0341 21.203C64.7156 21.4756 65.1926 21.7822 65.7037 22.2933C66.2148 22.8044 66.5215 23.2815 66.7941 23.963C66.9985 24.4741 67.237 25.2237 67.3052 26.6548C67.3733 28.1881 67.3733 28.6311 67.3733 32.5156C67.3733 36.4 67.3733 36.843 67.3052 38.3763C67.237 39.7733 66.9985 40.557 66.7941 41.0681C66.5215 41.7496 66.2148 42.2267 65.7037 42.7378C65.1926 43.2489 64.7156 43.5556 64.0341 43.8281C63.523 44.0326 62.7733 44.2711 61.3422 44.3393C59.8089 44.4074 59.3659 44.4074 55.4815 44.4074C51.6311 44.4074 51.1541 44.4074 49.6207 44.3393C48.2237 44.2711 47.44 44.0326 46.9289 43.8281C46.2474 43.5556 45.7704 43.2489 45.2593 42.7378C44.7481 42.2267 44.4415 41.7496 44.1689 41.0681C43.9644 40.557 43.7259 39.8074 43.6578 38.3763C43.5896 36.843 43.5896 36.4 43.5896 32.5156C43.5896 28.6311 43.5896 28.1881 43.6578 26.6548C43.7259 25.2578 43.9644 24.4741 44.1689 23.963C44.4415 23.2815 44.7481 22.8044 45.2593 22.2933C45.7704 21.7822 46.2474 21.4756 46.9289 21.203C47.44 20.9985 48.1896 20.76 49.6207 20.6919C51.1541 20.6237 51.6311 20.6237 55.4815 20.6237ZM55.4815 18C51.563 18 51.0519 18 49.5185 18.1022C47.9852 18.1704 46.9289 18.4089 46.0089 18.7837C45.0548 19.1585 44.237 19.6356 43.4533 20.4533C42.6356 21.2711 42.1585 22.0548 41.7837 23.0089C41.4089 23.9289 41.1704 24.9852 41.1022 26.5185C41 28.0519 41 28.563 41 32.4815C41 36.4 41 36.9111 41.1022 38.4444C41.1704 39.9778 41.4089 41.0341 41.7837 41.9541C42.1585 42.9081 42.6356 43.7259 43.4533 44.5096C44.2711 45.3274 45.0548 45.8044 46.0089 46.1793C46.9289 46.5541 47.9852 46.7926 49.5185 46.8607C51.0519 46.9289 51.563 46.963 55.4815 46.963C59.4 46.963 59.9111 46.963 61.4444 46.8607C62.9778 46.7926 64.0341 46.5541 64.9541 46.1793C65.9081 45.8044 66.7259 45.3274 67.5096 44.5096C68.3274 43.6919 68.8044 42.9081 69.1793 41.9541C69.5541 41.0341 69.7926 39.9778 69.8607 38.4444C69.9289 36.9111 69.963 36.4 69.963 32.4815C69.963 28.563 69.963 28.0519 69.8607 26.5185C69.7926 24.9852 69.5541 23.9289 69.1793 23.0089C68.8044 22.0548 68.3274 21.237 67.5096 20.4533C66.6919 19.6356 65.9081 19.1585 64.9541 18.7837C64.0341 18.4089 62.9778 18.1704 61.4444 18.1022C59.9111 18 59.4 18 55.4815 18Z" fill="white"/>
<path d="M55.4815 25.0533C51.3585 25.0533 48.0533 28.3926 48.0533 32.4815C48.0533 36.5704 51.3926 39.9096 55.4815 39.9096C59.6044 39.9096 62.9096 36.5704 62.9096 32.4815C62.9096 28.3926 59.6044 25.0533 55.4815 25.0533ZM55.4815 37.32C52.8237 37.32 50.643 35.1733 50.643 32.4815C50.643 29.7896 52.7896 27.643 55.4815 27.643C58.1733 27.643 60.32 29.7896 60.32 32.4815C60.32 35.1733 58.1393 37.32 55.4815 37.32Z" fill="white"/>
<path d="M63.2163 26.4844C64.176 26.4844 64.9541 25.7064 64.9541 24.7467C64.9541 23.7869 64.176 23.0089 63.2163 23.0089C62.2565 23.0089 61.4785 23.7869 61.4785 24.7467C61.4785 25.7064 62.2565 26.4844 63.2163 26.4844Z" fill="white"/>
</svg>
