<svg width="170" height="74" viewBox="0 0 170 74" fill="none" xmlns="http://www.w3.org/2000/svg">
<path d="M30.7602 56.0294L21.242 26.0251L11.7238 56.0294H0L13.6974 13.0815H28.7866L42.484 56.0294H30.7602ZM69.0269 63.7839H69.0329V73.824H66.3954V66.8073L69.0269 63.7839ZM70.0967 67.5872L73.4601 63.7459H76.6595L72.2443 68.817L76.6315 73.862H73.4321L70.0967 70.0207V67.5872ZM85.0519 63.6099C87.8134 63.6099 89.931 65.4956 89.931 68.805C89.931 72.1263 87.7854 74 85.0519 74C82.3584 74 80.1988 72.1263 80.1988 68.805C80.2008 65.4956 82.3184 63.6099 85.0519 63.6099ZM87.2395 68.803C87.2395 67.3412 86.6376 66.0415 85.0519 66.0415C83.4802 66.0275 82.8923 67.2992 82.8923 68.803C82.8923 70.2927 83.4802 71.5644 85.0519 71.5644C86.6376 71.5644 87.2395 70.2927 87.2395 68.803ZM99.7491 66.2055L97.9175 63.6079L93.4343 73.86H96.3598L99.7491 66.2055ZM98.9973 71.4425L100.857 73.862L102.483 70.2267L104.15 73.862H106.952L102.427 63.6099L98.9973 71.4425ZM115.32 66.2475C115.302 66.2514 115.286 66.2574 115.27 66.2634C114.182 66.6054 113.531 67.6212 113.531 68.789C113.531 70.1827 114.774 71.4265 116.21 71.4265V66.2594L117.708 63.7439H119.205C121.899 63.7439 124.276 66.1355 124.276 68.815C124.276 71.4924 122.229 73.81 119.577 73.858C119.549 73.858 118.258 73.858 118.228 73.858L119.921 71.3145C119.937 71.2905 119.977 71.2945 120.005 71.2825C120.947 70.9106 121.583 69.9907 121.583 68.815C121.583 67.4212 120.353 66.1775 118.904 66.1775V71.4265L117.226 73.86H115.91C113.217 73.86 110.839 71.4685 110.839 68.789C110.839 66.1235 112.867 63.8159 115.5 63.7459C115.53 63.7459 116.804 63.7439 116.804 63.7439L115.32 66.2475ZM132.931 63.6099C135.692 63.6099 137.81 65.4956 137.81 68.805C137.81 72.1263 135.664 74 132.931 74C130.237 74 128.078 72.1263 128.078 68.805C128.078 65.4956 130.195 63.6099 132.931 63.6099ZM135.116 68.803C135.116 67.3412 134.515 66.0415 132.929 66.0415C131.357 66.0275 130.769 67.2992 130.769 68.803C130.769 70.2927 131.357 71.5644 132.929 71.5644C134.517 71.5644 135.116 70.2927 135.116 68.803ZM141.475 67.5872H145.003C145.385 67.5872 145.672 67.2732 145.672 66.8773C145.672 66.4814 145.385 66.1795 145.003 66.1795H141.475L143.087 63.7459H145.536C147.108 63.7459 148.4 64.9897 148.394 66.8493C148.388 68.709 147.094 70.0207 145.55 70.0207H144.169V73.862H141.475V67.5872ZM155.777 73.862V66.7833L158.47 68.707V73.862H155.777ZM151.675 63.7459H159.098C161.805 63.7459 162.569 65.0717 162.569 67.5872V73.862H159.876V67.5872C159.876 66.4534 159.588 66.1795 158.468 66.1795H154.367V73.862H151.673V63.7459H151.675ZM76.5915 13.0815H76.6195V56.0294H65.3316V26.0151L76.5915 13.0815ZM111.949 13.1875C121.231 1.96961 121.515 1.45371 130.015 1.43371L140.184 1.40771C131.173 12.3576 130.655 13.1555 122.761 13.1695L111.949 13.1875ZM59.0248 56.0294H47.591V29.3904H59.0248V56.0294ZM59.0248 13.0815V23.4115H47.591V13.0815H59.0248ZM80.6847 29.3904L94.962 13.0815H108.543L89.797 34.6134L108.427 56.0294H94.8461L80.6847 39.7205V29.3904ZM162.013 56.0294H119.355L128.526 29.3904H140.307L134.621 45.6993H146.46L135.026 13.0835H146.924L162.013 56.0294Z" fill="#182316"/>
<path d="M169.474 7.18064C169.474 11.2539 166.276 14.4493 162.117 14.4493C158 14.4493 154.717 11.2519 154.717 7.18064C154.717 3.1954 158 0 162.117 0C166.278 0 169.474 3.1974 169.474 7.18064ZM156.556 7.18064C156.556 10.378 158.922 12.9176 162.161 12.9176C165.315 12.9176 167.634 10.378 167.634 7.22463C167.634 4.02724 165.313 1.44373 162.117 1.44373C158.922 1.44573 156.556 4.02924 156.556 7.18064ZM160.979 10.9479H159.316V3.76529C159.972 3.63331 160.891 3.54733 162.075 3.54733C163.433 3.54733 164.047 3.76529 164.571 4.07323C164.965 4.37917 165.271 4.94906 165.271 5.64893C165.271 6.43678 164.657 7.05067 163.781 7.31262V7.4006C164.481 7.66255 164.875 8.18845 165.095 9.15227C165.315 10.2461 165.445 10.686 165.621 10.9479H163.825C163.607 10.686 163.475 10.0281 163.255 9.19626C163.123 8.40841 162.685 8.05847 161.765 8.05847H160.977V10.9479H160.979ZM161.023 6.8747H161.811C162.731 6.8747 163.475 6.56876 163.475 5.8229C163.475 5.16502 162.993 4.7291 161.943 4.7291C161.505 4.7291 161.199 4.7731 161.023 4.81709V6.8747Z" fill="#182316"/>
</svg>
