<svg width="91" height="91" viewBox="0 0 91 91" fill="none" xmlns="http://www.w3.org/2000/svg">
<path d="M90.9763 7.81828C90.9763 8.6001 90.9763 9.35824 90.9763 10.1401C90.6446 11.2062 90.005 12.0828 89.2231 12.8646C86.7592 15.3049 84.3189 17.7688 81.8787 20.2091C81.6655 20.4223 81.2153 20.6118 81.3811 20.9435C81.5233 21.2515 81.9734 21.0857 82.2814 21.0857C83.3476 21.1093 84.4137 21.133 85.4798 21.0857C88.1096 20.9672 90.0049 22.0096 91 24.521C91 45.5592 91 66.5738 91 87.6121C90.4314 89.2942 89.2942 90.4077 87.6121 91C61.9065 91 36.201 91 10.4954 91C6.53892 90.1945 3.4353 88.157 1.4215 84.5795C0.734444 83.3713 0.355376 82.0208 0 80.6941C0 57.1682 0 33.6423 0 10.1401C0.473835 8.17365 1.18459 6.302 2.44025 4.69097C4.40666 2.13226 7.03645 0.687061 10.1401 0C12.2012 0 14.2861 0 16.3473 0C18.7876 0.900286 19.8537 2.65348 19.8063 5.25957C19.7352 10.0453 19.7826 14.8547 19.7826 19.6405C19.7826 21.0857 19.7826 21.0857 21.1804 21.0857C33.3343 21.0857 45.5118 21.0857 57.6657 21.1093C58.4712 21.1093 59.0398 20.8961 59.6084 20.3038C65.792 14.0729 72.0229 7.86566 78.2301 1.63473C78.9646 0.876595 79.8175 0.307993 80.8362 0C81.6181 0 82.3762 0 83.158 0C84.2478 0.379068 85.1244 1.04244 85.9063 1.87165C86.9487 2.96147 88.0148 4.0276 89.1047 5.07003C89.9339 5.85186 90.5972 6.75215 90.9763 7.81828ZM49.2078 87.8727C61.1721 87.8727 73.1364 87.8727 85.1008 87.8727C85.4324 87.8727 85.7641 87.8727 86.0721 87.8727C87.2567 87.8016 87.7779 87.2804 87.849 86.0958C87.8727 85.8115 87.849 85.5035 87.849 85.2192C87.849 65.8157 87.849 46.4358 87.849 27.0323C87.849 26.7717 87.849 26.4874 87.849 26.2268C87.7779 24.9 87.3041 24.4025 85.9773 24.4025C83.6082 24.4025 81.239 24.4262 78.8698 24.3788C77.9932 24.3551 77.3772 24.6394 76.7613 25.2554C72.4257 29.6384 68.0664 33.974 63.7071 38.3332C62.7357 39.3046 61.6696 40.1101 60.3192 40.3234C57.95 40.6787 55.5808 41.0578 53.188 41.0815C46.5069 41.1052 39.8021 41.1052 33.1211 41.0815C32.2919 41.0815 31.9602 41.3421 31.9602 42.195C31.9839 46.957 31.9839 51.7191 31.9602 56.5048C31.9602 57.263 32.2445 57.5473 33.0026 57.5473C44.3746 57.5236 55.7467 57.5236 67.1187 57.5473C67.8768 57.5473 68.1612 57.2866 68.1612 56.5285C68.1138 54.491 68.1375 52.4535 68.1612 50.3923C68.1612 49.1604 68.7534 48.4733 69.7722 48.4733C70.7436 48.497 71.3359 49.1604 71.3359 50.345C71.3359 57.8079 71.3359 65.2708 71.3359 72.7337C71.3359 73.4681 71.17 74.1315 70.6962 74.7238C70.0091 75.6004 69.0614 75.9557 67.9716 75.9557C58.1159 75.9557 48.2601 75.9557 38.3806 75.9557C38.1674 75.9557 37.9542 75.9557 37.7646 75.932C36.9354 75.8136 36.3905 75.245 36.3431 74.4632C36.2721 73.6103 36.7222 72.9706 37.5988 72.7811C37.9779 72.6863 38.3569 72.6863 38.736 72.6863C41.5553 72.6863 44.351 72.6863 47.1703 72.6863C48.4022 72.6863 48.4259 72.6626 48.4259 71.4543C48.4259 68.327 48.4259 65.176 48.4259 62.0487C48.4259 60.8878 48.3785 60.8404 47.2177 60.8404C42.5978 60.8404 37.9779 60.8404 33.358 60.8404C32.0075 60.8404 31.9602 60.8641 31.9602 62.2382C31.9602 68.3981 31.9602 74.5579 31.9602 80.7178C31.9602 81.2153 31.9365 81.7365 31.8417 82.2104C31.6759 83.0396 30.9651 83.5608 30.1833 83.5134C29.3778 83.4423 28.7855 82.85 28.7144 81.9971C28.6907 81.6418 28.6907 81.2864 28.6907 80.931C28.6907 68.2322 28.6907 55.5335 28.6907 42.811C28.6907 42.5267 28.667 42.2187 28.6907 41.9344C28.7144 41.3658 28.4538 41.1052 27.8852 41.1289C27.435 41.1289 27.0086 41.1289 26.5584 41.1289C25.7529 41.1289 24.9474 41.1526 24.1656 41.0815C23.1942 40.9867 22.6256 40.2997 22.6493 39.4231C22.673 38.5465 23.289 37.9305 24.2603 37.8594C24.592 37.8357 24.9 37.8357 25.2317 37.8357C33.0263 37.8357 40.7972 37.8357 48.5918 37.8357C48.8524 37.8357 49.113 37.8357 49.3973 37.8357C49.7527 37.8357 49.9422 37.6699 49.9422 37.2908C49.8948 35.5139 50.2976 33.7607 50.416 31.9839C50.5345 30.0648 51.2926 28.4538 52.7615 27.1744C53.5197 26.5111 54.183 25.7529 54.8938 25.0185C55.0122 24.9 55.2018 24.7816 55.107 24.5683C55.0122 24.3788 54.799 24.4262 54.6332 24.4262C54.4673 24.4262 54.2778 24.4262 54.1119 24.4262C43.119 24.4262 32.1497 24.4262 21.1567 24.4262C19.7826 24.4262 19.7826 24.4262 19.7826 25.8003C19.7826 38.8782 19.7826 51.9797 19.7826 65.0575C19.7826 67.8295 17.8399 69.8196 15.068 69.8907C13.9781 69.9143 12.8646 69.8907 11.7748 69.9143C7.51028 70.0091 3.07993 73.4918 3.151 79.0594C3.19839 83.0396 6.27831 86.6644 10.1638 87.5647C11.4194 87.849 12.6751 87.8964 13.9544 87.8964C25.7055 87.8727 37.4566 87.8727 49.2078 87.8727ZM3.22208 70.246C3.34054 70.2223 3.38792 70.2223 3.4353 70.175C3.55376 70.0802 3.67222 69.9854 3.76699 69.8907C5.78079 68.0427 8.12627 66.9766 10.8271 66.6686C12.1776 66.5027 13.5517 66.6212 14.9021 66.5738C16.0156 66.5264 16.4421 66.1 16.5131 65.0102C16.5368 64.6785 16.5368 64.3705 16.5368 64.0388C16.5368 44.6116 16.5368 25.1843 16.5368 5.75709C16.5368 5.40172 16.5368 5.04634 16.5131 4.69097C16.4421 3.64853 16.0156 3.19839 14.9732 3.12731C14.1677 3.07993 13.3858 3.07993 12.5803 3.10362C10.8508 3.17469 9.16871 3.41161 7.65243 4.33559C4.38297 6.302 3.10362 9.31086 3.10362 13.0068C3.10362 31.7706 3.10362 50.5582 3.10362 69.3221C3.10362 69.63 3.03254 69.9143 3.22208 70.246ZM62.1671 35.0401C62.4277 35.0401 62.5936 34.8506 62.7594 34.6847C67.8532 29.591 72.9232 24.521 78.0169 19.4272C78.396 19.0482 78.4671 18.7402 78.0406 18.3137C76.2163 16.5368 74.4158 14.7363 72.6389 12.912C72.2361 12.4855 71.9281 12.5329 71.5254 12.912C66.4554 18.0057 61.3616 23.0995 56.2679 28.1695C55.8178 28.6196 55.8651 28.9276 56.2916 29.3541C58.0685 31.1073 59.8217 32.8605 61.5748 34.6136C61.7644 34.8269 61.9065 35.0164 62.1671 35.0401ZM59.9638 72.6389C62.333 72.6389 64.7022 72.6152 67.0713 72.6626C67.8532 72.6626 68.1848 72.4494 68.1848 71.6201C68.1375 68.3744 68.1612 65.1049 68.1848 61.8591C68.1848 61.101 67.9479 60.793 67.1661 60.793C62.3804 60.8167 57.5709 60.8167 52.7852 60.793C51.9797 60.793 51.6717 61.101 51.6954 61.8828C51.7191 65.1049 51.7191 68.327 51.6954 71.5491C51.6954 72.3546 51.9797 72.6626 52.7852 72.6389C55.1781 72.6152 57.5709 72.6389 59.9638 72.6389ZM81.9734 3.22208C81.4996 3.19839 81.1205 3.38792 80.7889 3.7196C80.2913 4.21713 79.7938 4.73835 79.2726 5.21218C78.8224 5.61494 78.8935 5.89925 79.2963 6.302C80.6704 7.62874 82.0208 9.00286 83.3713 10.3533C85.2903 12.2723 85.2903 12.2723 87.1382 10.2822C87.9675 9.40562 87.9911 8.57641 87.1619 7.72351C85.8589 6.39677 84.5322 5.09373 83.2291 3.76699C82.8737 3.4353 82.4947 3.19839 81.9734 3.22208ZM82.7553 14.4993C82.7553 14.2387 82.5184 14.0729 82.3288 13.9071C80.8599 12.4145 79.3673 10.9456 77.8985 9.45301C76.4059 7.96043 76.4059 7.96043 74.937 9.54777C74.5579 9.95053 74.5105 10.2585 74.9133 10.6613C76.7139 12.4382 78.5145 14.2387 80.2913 16.0393C80.4572 16.2052 80.623 16.3947 80.8836 16.371C81.1679 16.371 82.7316 14.7836 82.7553 14.4993ZM53.7566 31.7469C53.567 33.358 53.3538 34.9453 53.2117 36.509C53.1169 37.4093 53.567 37.812 54.491 37.7646C55.0833 37.7409 55.6756 37.6936 56.2442 37.5751C57.2393 37.3856 58.2817 37.4566 59.2057 37.1487C57.3814 35.3718 55.6045 33.5712 53.7566 31.7469Z" fill="#182316"/>
</svg>
