<svg width="89" height="89" viewBox="0 0 89 89" fill="none" xmlns="http://www.w3.org/2000/svg">
<path d="M15.4288 83.4638C14.6582 83.4638 13.8876 83.3411 13.1346 83.0784C10.2975 82.1323 8.37111 79.4518 8.33609 76.4209C8.31857 75.2295 8.58127 74.1258 9.10665 73.1272C9.43939 72.4965 9.40437 71.9709 8.96655 71.4102C4.39571 65.3659 1.48859 58.4457 0.350256 50.8071C0.262692 50.1939 0.175128 49.5807 0.105077 48.985C0.0700512 48.7047 0.0350256 48.4244 0 48.1616V40.6807C0.0525384 40.2778 0.105077 39.8748 0.157615 39.4719C0.280205 38.5959 0.402794 37.7024 0.542896 36.8264C2.03148 28.4695 5.60409 21.0762 11.1907 14.8392C17.3902 7.93642 25.0608 3.32874 34.0098 1.13878C35.9187 0.665748 37.9152 0.385433 39.8241 0.122638C40.1043 0.0875984 40.3845 0.0350394 40.6647 0H48.1427C48.7556 0.105118 49.3861 0.175197 49.9815 0.245276C51.0323 0.367913 52.1356 0.508071 53.1863 0.753347C53.9744 0.946063 54.3947 1.3315 54.5173 1.99724C54.5874 2.45276 54.4998 2.87323 54.2371 3.18858C53.9394 3.53898 53.5016 3.71417 52.9587 3.71417C52.8536 3.71417 52.7485 3.71417 52.6259 3.69665C52.1706 3.62657 51.6978 3.5565 51.2249 3.48642C50.5244 3.3813 49.7889 3.25866 49.0708 3.17106C47.4597 2.97835 45.831 2.89075 44.2373 2.89075C39.3687 2.89075 34.5702 3.78425 29.9819 5.5187C19.877 9.37303 12.2414 16.2407 7.28532 25.9467C4.71094 30.9923 3.25738 36.4935 2.97717 42.31C2.52184 51.7707 5.04368 60.5656 10.4726 68.4494C10.5427 68.537 10.6128 68.6421 10.6828 68.7297C10.7879 68.8699 10.893 69.01 10.963 69.1327C11.1556 69.4656 11.4884 69.9211 12.1188 69.9211C12.3465 69.9211 12.5917 69.8685 12.8894 69.7459C13.7125 69.4305 14.5706 69.2553 15.4463 69.2553C17.758 69.2553 19.9471 70.4291 21.278 72.3913C22.9593 74.8616 22.8892 78.2254 21.1029 80.6081C19.7369 82.4301 17.6704 83.4638 15.4288 83.4638ZM15.3937 72.2512C13.2046 72.2512 11.3658 74.0732 11.3133 76.3158C11.2432 78.5407 13.047 80.4154 15.3237 80.503C15.3762 80.503 15.4113 80.503 15.4638 80.503C17.6179 80.503 19.4392 78.716 19.5443 76.5085C19.5968 75.5098 19.194 74.4587 18.4585 73.6528C17.6879 72.8118 16.6371 72.3037 15.5689 72.2687C15.4988 72.2512 15.4463 72.2512 15.3937 72.2512Z" fill="#182316"/>
<path d="M40.8223 89L39.7715 88.8423C38.6332 88.6846 37.4949 88.5095 36.3566 88.3518C36.1464 88.3167 35.9362 88.2817 35.7261 88.2116C34.8855 87.9663 34.3776 87.2655 34.5002 86.5297C34.6403 85.7764 35.2708 85.2683 36.0763 85.2683C36.1639 85.2683 36.2515 85.2683 36.3215 85.2858C36.8294 85.3559 37.3548 85.426 37.8451 85.5136C38.5281 85.6187 39.2462 85.7238 39.9642 85.8114C41.5578 85.9866 43.169 86.0917 44.7452 86.0917C49.6312 86.0917 54.4473 85.1982 59.0531 83.4463C69.0704 79.6095 76.6535 72.8118 81.5921 63.2461C84.254 58.0778 85.7426 52.4364 86.0053 46.4797C86.4256 36.9665 83.8162 28.1366 78.2822 20.2352C77.7743 19.4994 77.4941 19.0965 76.9162 19.0965C76.6535 19.0965 76.3558 19.1841 75.9004 19.3067L75.7603 19.3417C74.9372 19.5695 74.1316 19.6921 73.3786 19.6921C71.4697 19.6921 69.806 18.9388 68.4225 17.4496C66.3034 15.172 65.8656 12.474 67.1615 9.63583C68.3699 6.97284 70.559 5.55374 73.5012 5.53622H73.5712C76.058 5.53622 78.3172 6.78012 79.6131 8.86496C80.9091 10.9498 81.0142 13.5427 79.9109 15.7852C79.5606 16.486 79.6131 17.0116 80.086 17.6423C84.8845 24.0195 87.8441 31.3953 88.8424 39.5595C88.8599 39.6821 88.8599 39.8222 88.8599 39.9624C88.8774 40.2427 88.8774 40.5756 89 40.8909V48.1441C89 48.1616 88.9825 48.1967 88.9825 48.2142C88.9475 48.3193 88.9124 48.4419 88.8949 48.5821C88.3695 54.8366 86.5832 60.6882 83.5885 65.9616C77.319 77.0341 67.9671 84.3398 55.7432 87.6685C53.344 88.3167 50.8922 88.6496 48.1602 89H40.8223ZM73.5187 8.51457C71.3121 8.51457 69.4382 10.4067 69.4207 12.6317C69.4207 13.6478 69.8585 14.6815 70.6291 15.4699C71.4172 16.2758 72.4854 16.7313 73.5362 16.7488H73.5712C75.7953 16.7488 77.6167 14.9093 77.6692 12.6667C77.7042 10.4242 75.9004 8.56713 73.6238 8.51457C73.5712 8.51457 73.5537 8.51457 73.5187 8.51457Z" fill="#182316"/>
<path d="M44.465 76.1055C42.7312 76.1055 40.9974 76.1055 39.2637 76.1055C38.1253 76.1055 37.5649 75.5624 37.4949 74.4061C37.4599 73.6352 37.4599 72.8644 37.4774 72.076C37.4949 71.3927 37.1972 70.9722 36.5492 70.7795C34.8504 70.289 33.1692 69.5882 31.5405 68.6772C31.2778 68.537 31.0327 68.4669 30.8225 68.4669C30.4898 68.4669 30.192 68.6246 29.8943 68.94C29.404 69.4831 28.8436 70.0437 28.1781 70.6569C27.7928 71.0073 27.4075 71.2 27.0397 71.2C26.672 71.2 26.3042 71.0248 25.9364 70.6569C23.3621 68.1165 20.8052 65.5411 18.3359 63.0358C17.6179 62.3175 17.6354 61.5817 18.3534 60.8108C18.8788 60.2502 19.4917 59.602 20.1047 59.0063C20.5775 58.5508 20.6476 58.0778 20.3323 57.5171C19.4042 55.8177 18.6861 54.1183 18.2133 52.4364C18.0382 51.8408 17.6529 51.5429 17.0049 51.5429H16.6547C16.3745 51.5429 16.0943 51.5429 15.814 51.5429C15.3937 51.5429 15.0435 51.5429 14.7283 51.5254C13.3798 51.4553 12.9069 50.9473 12.9069 49.6158C12.9069 45.9717 12.9069 42.6254 12.9069 39.3667C12.9069 38.0878 13.4323 37.5622 14.6757 37.5096C15.0085 37.4921 15.3762 37.4921 15.814 37.4921C16.1468 37.4921 16.4795 37.4921 16.7948 37.4921H17.0224C17.6179 37.4921 17.9856 37.2118 18.1608 36.6337C18.7737 34.6189 19.4917 32.902 20.3499 31.3953C20.7351 30.712 20.3849 30.2565 20.0872 29.9762C19.5092 29.4156 18.8788 28.8024 18.3009 28.1892C17.5828 27.4183 17.5828 26.7 18.3184 25.9642C20.7001 23.5465 23.1694 21.0762 25.8664 18.4132C26.2692 18.0278 26.637 17.835 27.0222 17.835C27.39 17.835 27.7753 18.0102 28.1781 18.3782C28.7035 18.8337 29.2288 19.3593 29.8943 20.0776C30.0695 20.2703 30.3672 20.5331 30.77 20.5331C30.9801 20.5331 31.2078 20.463 31.453 20.3228C32.9766 19.4644 34.5878 18.7986 36.2164 18.3431C37.1271 18.0803 37.5124 17.5547 37.4423 16.5911C37.4073 16.0305 37.4073 15.4173 37.4423 14.6289C37.5124 13.4551 38.0553 12.947 39.2111 12.9295C40.9624 12.9295 42.6962 12.9295 44.4475 12.9295C46.1987 12.9295 47.95 12.9295 49.7188 12.9295C50.7871 12.9295 51.3475 13.4551 51.4351 14.5063C51.4876 15.2071 51.4701 15.9429 51.4701 16.6612V16.924C51.4526 17.6073 51.7503 18.0278 52.3983 18.2205C54.3947 18.8337 56.076 19.5345 57.5645 20.3754C57.7572 20.4805 57.9323 20.5331 58.125 20.5331C58.4927 20.5331 58.7554 20.3053 58.913 20.1476L59.1232 19.9374C59.6311 19.4118 60.1564 18.8687 60.6993 18.3957C61.1196 18.0102 61.5049 17.835 61.8727 17.835C62.258 17.835 62.6433 18.0453 63.0636 18.4482C64.6922 20.06 66.356 21.7244 67.9496 23.3187C68.8077 24.1772 69.6484 25.0181 70.5065 25.8766C70.9093 26.2795 71.1019 26.665 71.1019 27.0854C71.0844 27.4884 70.9268 27.8563 70.559 28.2242C70.3839 28.3994 70.2263 28.5746 70.0512 28.7323C69.6484 29.1352 69.2456 29.5557 68.8253 29.9411C68.51 30.239 68.1423 30.712 68.5626 31.4303C69.4382 32.937 70.1212 34.6014 70.6816 36.511C70.8743 37.1768 71.2771 37.4746 71.9601 37.4746C71.9776 37.4746 72.0126 37.4746 72.0301 37.4746C72.4154 37.4571 72.7832 37.4571 73.1334 37.4571C73.5362 37.4571 73.9215 37.4571 74.2717 37.4746C75.4801 37.5272 75.988 38.0703 75.988 39.2967C75.988 42.748 75.988 46.2344 75.988 49.6333C75.988 50.8947 75.5152 51.3852 74.2893 51.4904C73.939 51.5079 73.5537 51.5254 73.0984 51.5254C72.7832 51.5254 72.4679 51.5254 72.1527 51.5079H71.925C71.2771 51.5079 70.8568 51.8232 70.6816 52.4539C70.2088 54.1183 69.5258 55.7652 68.5801 57.4646C68.2473 58.0602 68.3349 58.5683 68.8253 59.0413C69.3682 59.5494 69.9986 60.1801 70.5765 60.8284C71.277 61.6343 71.2595 62.335 70.524 63.0709C68.0372 65.5937 65.4978 68.1341 62.976 70.6218C62.5907 70.9898 62.2229 71.1825 61.8552 71.1825C61.4874 71.1825 61.0846 70.9898 60.6818 70.6043C60.1039 70.0437 59.5085 69.4656 58.8955 68.8173C58.6503 68.5545 58.3876 68.4319 58.0899 68.4319C57.8973 68.4319 57.6871 68.4845 57.477 68.6071C55.7957 69.5356 54.062 70.2539 52.3107 70.7795C51.5051 71.0073 51.4176 71.603 51.4176 72.0059V72.2687C51.4176 72.952 51.4351 73.6528 51.4 74.3535C51.3475 75.5624 50.8046 76.088 49.5787 76.088C47.9325 76.1055 46.1987 76.1055 44.465 76.1055ZM30.4022 64.7878C30.6649 64.7878 30.9101 64.8754 31.2078 65.0506C33.6946 66.5923 36.4091 67.7136 39.2637 68.3969C40.1218 68.6071 40.4721 69.0801 40.5071 70.0437C40.5246 70.7795 40.5246 71.4102 40.5071 72.0409C40.4896 72.2862 40.5071 72.6366 40.7523 72.8994C40.9449 73.0921 41.2076 73.1797 41.5754 73.1797H41.6104C42.5211 73.1622 43.4317 73.1622 44.4299 73.1622C45.3581 73.1622 46.3213 73.1622 47.3721 73.1797H47.3896C47.7574 73.1797 48.0201 73.0921 48.1952 72.8994C48.3703 72.7067 48.4579 72.4614 48.4404 72.0935C48.4229 71.4453 48.4229 70.8146 48.4404 70.0963C48.4579 69.0626 48.8081 68.6071 49.7013 68.3793C52.5909 67.6785 55.2704 66.5748 57.6871 65.0506C58.0024 64.8579 58.2826 64.7528 58.5453 64.7528C58.8955 64.7528 59.2633 64.928 59.6661 65.2959C60.2265 65.8215 60.6993 66.2945 61.1371 66.7675C61.3123 66.9602 61.575 67.188 61.9077 67.188C62.2404 67.188 62.4856 66.9778 62.6432 66.8026C63.9042 65.4886 65.2877 64.1221 66.8463 62.5978C67.0039 62.4402 67.2141 62.1949 67.2141 61.8795C67.2141 61.5642 66.9864 61.3189 66.8288 61.1612C66.2509 60.6181 65.7605 60.1276 65.3052 59.637C64.6922 58.9713 64.6222 58.4106 65.0425 57.7449C66.5661 55.3097 67.6869 52.5941 68.405 49.6858C68.6151 48.8098 69.0704 48.477 70.0512 48.4595C70.4189 48.4595 70.7867 48.4419 71.1545 48.4419C71.4697 48.4419 71.7674 48.4419 72.0476 48.4595C72.0651 48.4595 72.1002 48.4595 72.1177 48.4595C72.3453 48.4595 72.6606 48.4244 72.9057 48.1967C73.0809 48.0215 73.1684 47.7587 73.1684 47.4083C73.1509 45.4811 73.1509 43.5189 73.1684 41.5567C73.1684 41.2063 73.0809 40.9435 72.9057 40.7683C72.7306 40.5931 72.4854 40.5055 72.1352 40.5055C72.1177 40.5055 72.0826 40.5055 72.0651 40.5055C71.7499 40.523 71.4347 40.523 71.137 40.523C70.7867 40.523 70.4364 40.523 70.0862 40.5055C69.088 40.4705 68.6326 40.1201 68.405 39.1915C67.722 36.3533 66.6186 33.6904 65.1125 31.2902C64.6222 30.5193 64.6922 29.9762 65.3752 29.2579C65.673 28.9425 65.9882 28.6272 66.2859 28.3293C66.4785 28.1366 66.6712 27.9614 66.8463 27.7687C66.8638 27.7512 66.8813 27.7337 66.9164 27.7161C67.0565 27.5935 67.2841 27.3657 67.2666 26.9803V26.8752L67.1966 26.7876C67.1791 26.7701 67.1791 26.7526 67.1615 26.735C67.109 26.665 67.0565 26.5774 66.9864 26.5073C66.426 25.9467 65.8831 25.4035 65.3227 24.8429C64.3945 23.9144 63.4664 22.9858 62.5382 22.0398C62.3455 21.847 62.1529 21.7595 61.9602 21.7595C61.68 21.7595 61.4699 21.9346 61.3123 22.0923L61.0671 22.3376C60.6293 22.7931 60.1739 23.2486 59.7011 23.6691C59.3158 24.0195 58.9656 24.1947 58.6153 24.1947C58.3526 24.1947 58.0899 24.1071 57.8097 23.9319C55.3404 22.4077 52.6084 21.2689 49.6663 20.5506C48.9132 20.3754 48.5455 19.8848 48.5279 19.0089C48.5104 18.2906 48.5104 17.5898 48.5279 16.924C48.5279 16.6963 48.5104 16.3459 48.2828 16.1006C48.1076 15.9254 47.8449 15.8203 47.4947 15.8203H47.4772C46.4965 15.8378 45.4982 15.8378 44.535 15.8378C43.5718 15.8378 42.5911 15.8378 41.6279 15.8203H41.6104C41.2601 15.8203 41.0149 15.9079 40.8398 16.0831C40.5946 16.3283 40.5771 16.6787 40.5946 16.924C40.6122 17.5722 40.6122 18.2205 40.5946 18.8337C40.5771 19.9024 40.2444 20.3404 39.2637 20.5856C36.4266 21.2689 33.7647 22.3902 31.3654 23.8793C31.0502 24.072 30.7525 24.1772 30.4898 24.1772C30.1395 24.1772 29.7893 24.002 29.3865 23.6516C28.9486 23.2486 28.4758 22.8106 28.0555 22.3201C27.8453 22.0748 27.5476 21.7945 27.1623 21.7945C26.7771 21.7945 26.4793 22.0748 26.2867 22.285C25.4461 23.1785 24.5354 24.072 23.6773 24.9305C23.3095 25.2809 22.9593 25.6488 22.5915 25.9992C22.1187 26.4722 21.891 26.7 21.8735 27.0504C21.8735 27.4008 22.1187 27.6461 22.5565 28.0841C22.6616 28.1892 22.7666 28.2943 22.8892 28.3994C23.1519 28.6622 23.4146 28.925 23.6598 29.1878C24.3778 29.9411 24.4479 30.4843 23.9575 31.2902C22.4689 33.6728 21.3656 36.3358 20.6826 39.1915C20.4549 40.1026 19.9996 40.453 18.9839 40.488C18.6511 40.5055 18.3009 40.5055 17.9156 40.5055C17.5828 40.5055 17.2326 40.5055 16.8998 40.5055H16.8823C16.5671 40.5055 16.3394 40.5931 16.1643 40.7508C15.9892 40.926 15.9191 41.1537 15.9191 41.4866C15.9366 43.8343 15.9191 45.7264 15.9191 47.4433C15.9191 47.7762 16.0067 48.039 16.1818 48.2142C16.3569 48.3894 16.5846 48.477 16.9174 48.477H16.9699C17.2851 48.477 17.6004 48.4595 17.9156 48.4595C18.2658 48.4595 18.6511 48.4595 19.0539 48.477C20.0171 48.4945 20.4725 48.8274 20.6826 49.7209C21.4006 52.6116 22.5039 55.3097 24.01 57.7098C24.4654 58.4457 24.3953 58.9888 23.7649 59.6896C23.257 60.2502 22.7141 60.7758 22.2412 61.2313C22.0661 61.389 21.8735 61.6343 21.856 61.9321C21.856 62.1599 21.961 62.3701 22.1887 62.5978C23.5022 63.8768 24.8682 65.2608 26.5144 66.9252C26.7245 67.1354 26.9347 67.2406 27.1623 67.2406C27.4601 67.2406 27.6877 67.0478 27.8103 66.9077C28.4408 66.2594 28.9311 65.7689 29.404 65.3134C29.6842 64.9455 30.0519 64.7878 30.4022 64.7878Z" fill="#182316"/>
<path d="M44.4825 58.726C40.7172 58.726 37.1446 57.2368 34.4477 54.5563C31.7507 51.8583 30.2621 48.3018 30.2446 44.5526C30.2446 40.7508 31.7157 37.1768 34.4301 34.4612C37.1271 31.7632 40.6822 30.274 44.465 30.274C48.2302 30.274 51.8028 31.7632 54.4998 34.4437C57.1968 37.1417 58.6854 40.6807 58.7029 44.4474C58.7029 48.2492 57.2318 51.8408 54.5173 54.5388C51.8379 57.2368 48.2653 58.726 44.4825 58.726ZM44.4825 33.3049C38.2129 33.3049 33.3093 38.228 33.3093 44.5C33.3093 50.7721 38.2304 55.6776 44.5 55.6776C47.5122 55.6776 50.3318 54.5213 52.4333 52.4189C54.5348 50.3165 55.6907 47.4959 55.6907 44.4825C55.6732 38.228 50.7521 33.3049 44.4825 33.3049Z" fill="#182316"/>
</svg>
