<svg width="110" height="64" viewBox="0 0 110 64" fill="none" xmlns="http://www.w3.org/2000/svg">
<rect width="110" height="64" rx="32" fill="#182316"/>
<path d="M67.2201 24.0912C67.2201 23.9581 67.2201 23.9581 67.0869 23.9581C66.7541 23.9581 66.4212 23.9248 66.1216 23.8582C64.9233 23.6918 61.1286 21.6946 60.4628 18.3992C60.4628 18.3326 60.2964 17.5337 60.2964 17.1675C60.2964 17.0011 60.2964 17.0011 60.13 17.0011C60.0967 17.0011 60.0634 17.0011 60.0301 17.0011C58.5322 17.0011 57.0343 17.0011 55.5696 17.0011C55.2701 17.0011 55.3034 16.9678 55.3034 17.2674C55.3034 23.7251 55.3034 30.216 55.3034 36.6737C55.3034 36.9067 55.3034 37.1397 55.2701 37.406C55.0371 38.6709 54.4046 39.6695 53.3394 40.3352C52.4074 40.9011 51.3755 41.0676 50.3103 40.8678C49.9774 40.8013 49.6446 40.6681 49.3117 40.535C49.2784 40.5017 49.2451 40.5017 49.2451 40.4684C49.1453 40.3685 49.0121 40.302 48.9123 40.2354C47.5475 39.2701 46.8818 37.9386 47.0815 36.2742C47.2812 34.5766 48.2465 33.4448 49.8443 32.8457C50.3103 32.6792 50.8096 32.6127 51.3422 32.6127C51.6751 32.646 52.0079 32.6792 52.3075 32.7458C52.4074 32.7791 52.474 32.7458 52.474 32.6127C52.474 32.5794 52.474 32.5461 52.474 32.4795C52.474 31.3145 52.4407 28.7847 52.4407 28.7847C52.4407 28.4518 52.4407 28.1189 52.4407 27.7861C52.4407 27.6862 52.4074 27.6862 52.3075 27.6529C51.7084 27.5863 51.1092 27.5531 50.51 27.6196C49.6779 27.6862 48.879 27.8526 48.0801 28.1522C46.8152 28.6182 45.7167 29.3173 44.7514 30.2493C43.9192 31.0482 43.2868 31.9802 42.8208 33.0121C42.3547 34.0107 42.1217 35.0759 42.0552 36.1411C41.9886 36.6737 41.9886 37.1397 42.0219 37.6057C42.0884 38.2715 42.2216 38.9039 42.4213 39.5364C42.9872 41.3339 44.0191 42.8318 45.517 43.9968C45.6834 44.13 45.8166 44.2631 45.983 44.3297C46.0496 44.3962 46.1494 44.4628 46.216 44.5294C46.449 44.6958 46.7153 44.8623 46.9816 44.9954C48.646 45.8276 50.3769 46.1605 52.241 45.9275C54.6376 45.6279 56.6348 44.5627 58.1993 42.7652C59.6639 41.0343 60.3963 39.0371 60.3963 36.7735C60.4295 33.5447 60.3963 30.3159 60.3963 27.1203C60.3963 27.0538 60.363 26.9206 60.4295 26.8873C60.4961 26.854 60.5627 26.9539 60.6293 26.9872C61.8276 27.7861 63.1258 28.3519 64.5238 28.6515C65.3227 28.8513 66.1549 28.9511 66.9871 28.9511C67.2534 28.9511 67.2866 28.9511 67.2866 28.6848C67.2866 27.5198 67.2201 24.3908 67.2201 24.0912Z" fill="white"/>
</svg>
